<svg xmlns="http://www.w3.org/2000/svg" width="266px" height="400px" version="1.2">
	<!-- generated by Polycasso (http://polycasso.sourceforge.net) -->
	<rect x="0" y="0" width="266px" height="400px" fill="black"/>
	<g comp-op="src-over">
		<polygon fill="#afadfe" fill-opacity="0.9823475" points="282,49 283,63 222,57 282,-16 195,1"/>
		<polygon fill="#ffd6a6" fill-opacity="0.64535356" points="182,0 266,0 284,254 113,241 67,212 20,264"/>
		<polygon fill="#c29265" fill-opacity="0.60779566" points="39,85 161,85 220,358 234,359 273,417 293,221"/>
		<polygon fill="#ffffff" fill-opacity="0.65820664" points="-37,423 -18,47 31,14 224,-22 275,-28 295,94"/>
		<polygon fill="#70989c" fill-opacity="0.3686102" points="197,255 197,316 193,366 113,323 113,250"/>
		<polygon fill="#6c563e" fill-opacity="0.74065274" points="266,106 260,277 151,284 139,141 266,296"/>
		<polygon fill="#606798" fill-opacity="0.28787363" points="21,162 36,216 37,232 93,232 111,198 145,145"/>
		<polygon fill="#593a18" fill-opacity="0.23145455" points="103,95 92,98 50,261 135,293 129,242 241,254"/>
		<polygon fill="#d3dec1" fill-opacity="0.22761738" points="253,256 239,204 225,246 210,241 69,140"/>
		<polygon fill="#797a5d" fill-opacity="0.397901" points="185,27 168,50 150,37 144,17"/>
		<polygon fill="#93cf9b" fill-opacity="0.11376953" points="143,234 150,136 201,184 266,209 266,195 317,414"/>
		<polygon fill="#470026" fill-opacity="1.0" points="61,185 53,200 52,219 96,211 78,179"/>
		<polygon fill="#6c5d3c" fill-opacity="0.57595783" points="140,165 131,185 126,281 247,138"/>
		<polygon fill="#3f5f9b" fill-opacity="0.27752006" points="206,328 189,339 184,350 225,339 232,385 174,385"/>
		<polygon fill="#000623" fill-opacity="0.58621854" points="104,224 225,263 225,262 246,248 280,244 266,413"/>
		<polygon fill="#d4b592" fill-opacity="0.4517284" points="185,93 246,196 258,253 248,255 202,264"/>
		<polygon fill="#0a0000" fill-opacity="0.11689174" points="186,228 186,151 231,143 253,133 266,134 271,151"/>
		<polygon fill="#ffffff" fill-opacity="1.0" points="139,344 143,332 160,332 156,322 141,322 132,354"/>
		<polygon fill="#bc5a20" fill-opacity="0.20673758" points="83,86 83,32 23,-31 220,6 249,107 179,86"/>
		<polygon fill="#84422a" fill-opacity="0.13902563" points="4,6 218,11 234,18 234,68 146,92 4,101"/>
		<polygon fill="#000000" fill-opacity="0.063811064" points="111,143 160,169 178,126 178,111 178,94 100,44"/>
		<polygon fill="#d0baa3" fill-opacity="0.8301648" points="50,12 122,140 146,141 150,68 118,75 119,39"/>
		<polygon fill="#baf1ff" fill-opacity="0.15510958" points="159,65 240,327 200,362 205,332 216,315 215,273"/>
		<polygon fill="#361f26" fill-opacity="0.8741768" points="123,183 136,183 136,201 95,208 52,143 113,135"/>
		<polygon fill="#d9fefa" fill-opacity="0.20081758" points="144,24 149,41 131,40 117,50 110,49 110,24"/>
		<polygon fill="#f0d0c3" fill-opacity="0.4075089" points="127,40 134,25 147,29 137,20 110,34 123,56"/>
		<polygon fill="#761350" fill-opacity="0.13121516" points="118,46 141,84 152,84 148,81 118,76"/>
		<polygon fill="#784300" fill-opacity="0.062235832" points="244,111 233,98 232,81 198,98 185,157 12,135"/>
		<polygon fill="#fff8f5" fill-opacity="0.88017166" points="121,403 110,302 99,223 99,221 -13,400"/>
		<polygon fill="#413a34" fill-opacity="0.8259145" points="33,7 133,250 167,249 134,185 150,152 187,249"/>
		<polygon fill="#824b6c" fill-opacity="0.19276881" points="148,39 151,42 139,72 137,67 124,85"/>
		<polygon fill="#574b33" fill-opacity="0.7062232" points="33,130 121,26 139,9 133,10 -3,24 -28,25"/>
		<polygon fill="#0f0812" fill-opacity="0.49461168" points="167,222 171,182 171,187 164,180 144,194 74,114"/>
		<polygon fill="#bfa38e" fill-opacity="0.45668626" points="137,132 131,211 153,191 133,145 179,101 179,-24"/>
		<polygon fill="#ebe6e8" fill-opacity="0.017026067" points="9,380 103,367 258,340 227,227 197,159"/>
		<polygon fill="#b5bee8" fill-opacity="0.39309675" points="265,303 266,283 273,335 245,340 228,349 215,349"/>
		<polygon fill="#b88f87" fill-opacity="0.20936179" points="202,15 221,24 189,59"/>
		<polygon fill="#000000" fill-opacity="0.49582982" points="12,35 12,80 23,34 79,242 203,348 218,309"/>
		<polygon fill="#7c939f" fill-opacity="0.19517022" points="34,300 219,396 218,405 207,403 207,378 221,390"/>
		<polygon fill="#c1af8d" fill-opacity="0.94941175" points="51,213 108,223 123,225 112,315 27,362 15,362"/>
		<polygon fill="#b49a8f" fill-opacity="0.7659556" points="175,197 166,159 170,187 172,182 165,141 200,162"/>
		<polygon fill="#706c56" fill-opacity="0.3362586" points="146,218 149,204 152,199 145,186 141,178 107,146"/>
		<polygon fill="#9fbdda" fill-opacity="0.43352926" points="274,369 236,399 236,414 255,414 299,384"/>
		<polygon fill="#ffffff" fill-opacity="1.0" points="149,297 89,297 69,366 52,416 90,428 122,397"/>
		<polygon fill="#9baef0" fill-opacity="0.58951426" points="-12,72 35,141 65,155 48,366 -12,360 -25,274"/>
		<polygon fill="#727b95" fill-opacity="0.30963844" points="266,268 257,299 204,307 187,302 266,399"/>
		<polygon fill="#6e4b29" fill-opacity="0.51199746" points="114,-13 91,122 71,135 71,111 -12,104 -5,-18"/>
		<polygon fill="#000060" fill-opacity="0.33470017" points="123,384 123,402 133,373 114,318 111,251 135,353"/>
		<polygon fill="#b4fa83" fill-opacity="0.033483326" points="266,290 266,370 266,352 205,370"/>
		<polygon fill="#bbae92" fill-opacity="0.33980036" points="113,108 91,65 121,29 89,29 82,31 55,89"/>
		<polygon fill="#1a2829" fill-opacity="0.9290756" points="112,266 135,251 126,258 126,294 188,281 152,361"/>
		<polygon fill="#ffe4a4" fill-opacity="0.1913445" points="39,38 79,32 199,80 245,119 222,159 171,182"/>
		<polygon fill="#ab9b89" fill-opacity="0.39928186" points="268,407 24,407 58,162 76,167 71,61 28,77"/>
		<polygon fill="#b08338" fill-opacity="0.29666317" points="36,310 41,293 60,256 33,256 52,271 60,301"/>
		<polygon fill="#520700" fill-opacity="0.15500885" points="37,321 56,328 50,366 67,408 67,446 22,412"/>
		<polygon fill="#241c1b" fill-opacity="0.5363102" points="56,7 56,-14 -12,-14 -12,-1 -40,48 137,257"/>
		<polygon fill="#352c37" fill-opacity="0.46428835" points="220,330 209,218 186,221 116,203 122,245 122,330"/>
		<polygon fill="#944824" fill-opacity="0.17694229" points="70,114 33,270 215,251 214,52 276,88 276,193"/>
		<polygon fill="#fff4ff" fill-opacity="0.23713082" points="153,400 131,384 131,369 97,384 97,400 137,412"/>
		<polygon fill="#422d21" fill-opacity="0.6009277" points="19,5 82,5 77,5 115,31 7,31"/>
		<polygon fill="#9f6a2e" fill-opacity="0.4463218" points="34,260 37,322 31,381 37,378 65,354 65,270"/>
		<polygon fill="#b8c7e9" fill-opacity="0.16738552" points="203,320 193,362 102,298"/>
		<polygon fill="#3a0000" fill-opacity="0.2457627" points="34,140 55,163 65,151 68,122 58,87 2,99"/>
		<polygon fill="#5ff860" fill-opacity="0.008289635" points="15,82 60,251 167,222 158,257"/>
		<polygon fill="#b0a9a4" fill-opacity="0.21111488" points="14,112 17,132 24,150 38,191 31,373 197,313"/>
		<polygon fill="#b69b8d" fill-opacity="0.22494894" points="35,291 35,366 38,365 5,367"/>
		<polygon fill="#ac797c" fill-opacity="0.41991454" points="57,214 61,226 61,254 71,251 102,224 102,214"/>
		<polygon fill="#ebc8a5" fill-opacity="0.32715762" points="181,258 192,265 243,258 214,191 206,181 179,140"/>
		<polygon fill="#281411" fill-opacity="0.43330604" points="179,177 182,162 179,162 200,231 6,41"/>
		<polygon fill="#a76c2d" fill-opacity="0.08759391" points="179,90 175,255 175,289 192,366 204,314 213,264"/>
		<polygon fill="#dd7700" fill-opacity="0.11797917" points="30,244 58,227 95,271 91,272 99,307 48,319"/>
		<polygon fill="#9c7568" fill-opacity="0.2696594" points="65,301 63,376 41,391 59,405 24,415 25,391"/>
		<polygon fill="#382d28" fill-opacity="0.69813806" points="211,302 153,196 214,260"/>
		<polygon fill="#35f10e" fill-opacity="0.0027329326" points="24,41 140,25 140,195 49,51 0,24 3,9"/>
		<polygon fill="#d5b59c" fill-opacity="0.4602973" points="63,296 54,354 114,321 112,279"/>
		<polygon fill="#8a480d" fill-opacity="0.12667906" points="76,287 55,306 47,306 31,357 24,402 73,386"/>
		<polygon fill="#ffffff" fill-opacity="0.13286829" points="277,360 252,380 245,389 248,387 237,388 266,357"/>
		<polygon fill="#893f38" fill-opacity="0.31177598" points="34,250 91,176 53,191 37,236"/>
		<polygon fill="#befa87" fill-opacity="0.033483326" points="266,292 266,367 266,357 208,372"/>
		<polygon fill="#6f92aa" fill-opacity="0.16854948" points="170,403 132,383 161,370 149,367 115,367 133,421"/>
		<polygon fill="#d9a297" fill-opacity="0.13154745" points="106,222 108,191 71,170 43,149"/>
		<polygon fill="#64e061" fill-opacity="0.015990794" points="138,228 262,261 166,262"/>
		<polygon fill="#e583b5" fill-opacity="0.011159778" points="99,124 93,140 68,216 115,223 122,216"/>
		<polygon fill="#423326" fill-opacity="0.92616814" points="232,164 232,147 283,121 277,121 277,168 265,194"/>
		<polygon fill="#e4c6bd" fill-opacity="0.40980947" points="256,57 170,73 118,84 146,84 163,118 201,112"/>
		<polygon fill="#104e00" fill-opacity="0.2071191" points="122,84 123,42 144,20"/>
		<polygon fill="#d1b29f" fill-opacity="0.21518785" points="15,115 37,231 33,274 34,324 0,378 191,342"/>
		<polygon fill="#86d9ff" fill-opacity="0.09736985" points="100,289 130,300 128,370 128,358"/>
		<polygon fill="#f1baa8" fill-opacity="0.14411396" points="95,310 75,320 51,326 35,310 83,400"/>
		<polygon fill="#785a50" fill-opacity="0.07797092" points="58,91 24,24 47,24 264,368 64,139 16,32"/>
		<polygon fill="#683e1d" fill-opacity="0.22981215" points="92,38 54,60 54,3"/>
		<polygon fill="#ffb9bb" fill-opacity="0.10683721" points="173,310 163,296 173,296 159,299"/>
		<polygon fill="#15001b" fill-opacity="0.27610332" points="116,57 145,57 147,21 145,13"/>
		<polygon fill="#060717" fill-opacity="0.29703426" points="138,353 143,326 153,336 188,375 217,375 210,360"/>
		<polygon fill="#ddc678" fill-opacity="0.060180306" points="84,68 139,72 181,118 183,170 248,176 258,170"/>
		<polygon fill="#5f5485" fill-opacity="0.26361507" points="8,104 0,111 13,111"/>
		<polygon fill="#866545" fill-opacity="0.27105415" points="69,140 68,111 106,155 106,156 89,102 167,160"/>
		<polygon fill="#e8f9e4" fill-opacity="0.11366403" points="150,375 158,389 190,390 212,373 190,370 182,362"/>
		<polygon fill="#9d774a" fill-opacity="0.37798798" points="33,259 45,218 57,195 73,180 97,199 135,225"/>
		<polygon fill="#5c8fff" fill-opacity="0.009865403" points="1,167 0,101 132,193 171,197 130,167"/>
		<polygon fill="#823800" fill-opacity="0.17976284" points="113,325 117,340 111,376 138,379 130,345 158,368"/>
		<polygon fill="#f3ffff" fill-opacity="0.08839816" points="239,318 239,212 184,191 192,241 211,270 116,173"/>
		<polygon fill="#82dd3c" fill-opacity="0.032265604" points="103,42 80,106 60,115 73,42"/>
		<polygon fill="#a6ff9a" fill-opacity="0.14841896" points="85,131 85,148 88,148 63,133 58,133"/>
		<polygon fill="#f9e2bd" fill-opacity="0.0811978" points="129,143 129,148 139,159 143,165 134,173 44,123"/>
		<polygon fill="#ac0ed3" fill-opacity="0.012260795" points="62,300 80,277 96,292 49,279"/>
		<polygon fill="#e6ab6c" fill-opacity="0.045583427" points="48,99 42,187 31,280 103,286 105,280"/>
		<polygon fill="#ffffff" fill-opacity="0.05043423" points="52,22 55,60 52,178 117,104 126,24 80,46"/>
		<polygon fill="#769639" fill-opacity="0.04740405" points="264,73 223,73 194,110 243,91 199,91 199,1"/>
		<polygon fill="#5158ca" fill-opacity="0.00532341" points="128,337 95,299 94,218 22,393 72,364 196,54"/>
		<polygon fill="#afb3ea" fill-opacity="0.023488045" points="157,314 157,289 165,289 204,246 217,259 131,372"/>
		<polygon fill="#cfa79b" fill-opacity="0.059996605" points="110,0 20,0 90,30 0,329 17,329 79,329"/>
		<polygon fill="#6980ff" fill-opacity="0.031481206" points="-23,119 -24,126 165,401 196,368 173,362 0,64"/>
		<polygon fill="#d3be9d" fill-opacity="0.7194943" points="203,193 112,115 112,127 129,133 129,114 184,139"/>
		<polygon fill="#fde4b0" fill-opacity="0.13301057" points="113,254 103,225 103,203 112,204 100,197 137,238"/>
		<polygon fill="#0600f1" fill-opacity="0.03413999" points="26,101 34,106 31,111 31,167 84,167 57,221"/>
		<polygon fill="#4e364c" fill-opacity="0.07875687" points="263,47 203,143 183,151 189,191 212,290 196,120"/>
		<polygon fill="#f1b7ff" fill-opacity="0.030245781" points="95,49 95,81 24,14 16,14 13,11"/>
		<polygon fill="#bf220d" fill-opacity="0.08711046" points="229,42 251,111 259,52 234,35 240,25 219,2"/>
		<polygon fill="#c7c58f" fill-opacity="0.22967184" points="234,53 199,53 210,112"/>
		<polygon fill="#fbffde" fill-opacity="0.040691495" points="144,43 92,222 142,260 144,278 150,270 102,326"/>
		<polygon fill="#0934fd" fill-opacity="0.037736118" points="232,258 255,247 266,242 252,241 231,235 242,228"/>
		<polygon fill="#292d3a" fill-opacity="0.47360718" points="150,365 151,371 156,376 148,367 140,355"/>
		<polygon fill="#270e5d" fill-opacity="0.012686372" points="0,21 15,21 45,15 45,36 125,286 69,286"/>
		<polygon fill="#f839bd" fill-opacity="0.097513914" points="24,51 34,61 19,38"/>
		<polygon fill="#fffeef" fill-opacity="0.09682149" points="117,199 128,216 144,149"/>
		<polygon fill="#84a5fc" fill-opacity="0.2877698" points="39,218 12,106 16,112 21,124 21,125 75,171"/>
		<polygon fill="#5f3d0f" fill-opacity="0.04461807" points="249,188 252,92 212,200 212,275 59,285"/>
		<polygon fill="#a57226" fill-opacity="0.07797092" points="8,99 61,112 39,11 65,36 246,350 80,161"/>
		<polygon fill="#f2deaa" fill-opacity="0.17538685" points="165,62 125,113 143,156 166,169 214,251 241,312"/>
		<polygon fill="#f5f2c6" fill-opacity="0.12665844" points="198,355 198,366 241,323 223,336 204,336 210,336"/>
		<polygon fill="#91487d" fill-opacity="0.024784446" points="141,300 87,294 87,307 81,324"/>
		<polygon fill="#b09b65" fill-opacity="0.12591809" points="67,99 49,66 49,62 20,58 59,104"/>
		<polygon fill="#8b7458" fill-opacity="0.50724465" points="179,214 180,200 173,206"/>
		<polygon fill="#030004" fill-opacity="0.03341359" points="73,74 148,195 148,216 165,235 188,231 73,231"/>
		<polygon fill="#ae7c4f" fill-opacity="0.14049369" points="267,214 285,229 271,242 226,271 236,271 194,252"/>
		<polygon fill="#fffcc1" fill-opacity="0.114663064" points="120,217 121,251 96,291 112,252 108,193"/>
		<polygon fill="#642471" fill-opacity="0.018517792" points="206,221 209,250 200,332 200,367 0,226 0,382"/>
		<polygon fill="#800a26" fill-opacity="0.04805863" points="223,56 264,124 283,91 279,104 255,56 255,40"/>
		<polygon fill="#100300" fill-opacity="0.12541544" points="267,199 267,141 223,141 229,171 234,180 229,199"/>
		<polygon fill="#48352a" fill-opacity="0.17035729" points="69,164 69,207 85,200 93,210 116,192"/>
		<polygon fill="#e9ccbb" fill-opacity="0.056650937" points="81,94 81,106 83,94 119,181 190,297 173,297"/>
		<polygon fill="#003948" fill-opacity="0.097234726" points="206,322 172,322 149,315 135,293 127,284 118,189"/>
		<polygon fill="#8f582a" fill-opacity="0.16087133" points="56,192 48,236 57,243 82,232 132,203 83,179"/>
		<polygon fill="#9396b6" fill-opacity="0.24602848" points="225,275 253,350 251,356 233,370 230,366 204,363"/>
		<polygon fill="#8e4e55" fill-opacity="0.19991761" points="249,50 257,82 250,89 235,92 231,91"/>
		<polygon fill="#a3afa2" fill-opacity="0.016423285" points="66,370 229,404 202,351 202,385 220,341 44,255"/>
		<polygon fill="#000000" fill-opacity="0.0671165" points="170,149 110,160 100,160 78,110"/>
		<polygon fill="#09fa20" fill-opacity="0.009665906" points="44,190 44,290 70,184 70,53 45,57 25,50"/>
		<polygon fill="#634b38" fill-opacity="0.17374617" points="47,22 72,35 81,39 72,44 68,53 60,5"/>
		<polygon fill="#d6c5ad" fill-opacity="0.26066685" points="151,121 120,156 125,139"/>
		<polygon fill="#f8f7b9" fill-opacity="0.08731085" points="247,156 232,223 258,202 248,170 248,-1"/>
		<polygon fill="#9f8da6" fill-opacity="0.029894054" points="106,161 16,224 8,231 41,229 149,161"/>
		<polygon fill="#d3ae91" fill-opacity="0.06604391" points="153,334 151,338 121,338 121,370 141,371"/>
		<polygon fill="#a5c2cd" fill-opacity="0.029251516" points="245,300 208,280 227,368"/>
		<polygon fill="#d54d5a" fill-opacity="0.017308235" points="36,268 36,364 106,268"/>
		<polygon fill="#d54d53" fill-opacity="0.017308235" points="36,229 36,364 98,274"/>
		<polygon fill="#976f20" fill-opacity="0.11413419" points="200,165 189,165 203,193 187,196 173,185 156,179"/>
		<polygon fill="#a8b196" fill-opacity="0.24977416" points="145,309 139,293 70,253"/>
		<polygon fill="#2543c5" fill-opacity="0.05990684" points="204,273 240,335 248,276"/>
		<polygon fill="#fdda6e" fill-opacity="0.063270986" points="86,87 101,120 129,148 139,132 141,125 130,94"/>
		<polygon fill="#8c464d" fill-opacity="0.043542325" points="-3,122 15,123 15,135 21,128 34,85 -14,55"/>
		<polygon fill="#4e6ce9" fill-opacity="0.03960669" points="240,313 226,288 188,239 245,235"/>
		<polygon fill="#e4c08e" fill-opacity="0.2585855" points="113,266 67,266 58,243 49,253 88,220 96,227"/>
		<polygon fill="#ffcb6f" fill-opacity="0.07099259" points="118,138 112,156 107,107 91,29 5,15 53,104"/>
		<polygon fill="#002b7e" fill-opacity="0.08121967" points="112,286 112,256 140,297"/>
		<polygon fill="#f7eebc" fill-opacity="0.02828592" points="73,121 202,136 212,158 247,211 251,95"/>
		<polygon fill="#5e8287" fill-opacity="0.007989228" points="129,242 14,64 14,242"/>
		<polygon fill="#e8c279" fill-opacity="0.4664154" points="65,141 59,151 76,122"/>
		<polygon fill="#63a2f7" fill-opacity="0.044777215" points="20,304 26,364 43,293 -2,307"/>
		<polygon fill="#939f83" fill-opacity="0.04298514" points="38,93 13,114 30,66 19,137"/>
		<polygon fill="#622f43" fill-opacity="0.28973228" points="63,124 90,124 74,119"/>
		<polygon fill="#bba26e" fill-opacity="0.30338758" points="43,254 95,208 59,257"/>
		<polygon fill="#7d6b51" fill-opacity="0.009807885" points="209,380 187,388 191,400 196,398 66,178"/>
		<polygon fill="#b8eef6" fill-opacity="0.018518507" points="118,56 215,86 170,146 141,125 140,115 201,32"/>
		<polygon fill="#bb00e1" fill-opacity="0.007843852" points="245,400 173,400 246,348 229,332 214,305 245,271"/>
		<polygon fill="#c5ecda" fill-opacity="0.09110391" points="69,393 35,393 61,369"/>
		<polygon fill="#c4c596" fill-opacity="0.18812925" points="203,202 236,185 222,225 199,225"/>
		<polygon fill="#d8b8d8" fill-opacity="0.27243698" points="212,158 244,128 221,123 224,112"/>
	</g>
</svg>
