<svg xmlns="http://www.w3.org/2000/svg" width="636px" height="474px" version="1.2">
	<!-- generated by Polycasso (http://polycasso.sourceforge.net) -->
	<rect x="0" y="0" width="636px" height="474px" fill="black"/>
	<g comp-op="src-over">
		<polygon fill="#527eb6" fill-opacity="0.8821569" points="-6,464 0,0 636,0 636,443 632,467 636,427 636,388"/>
		<polygon fill="#bcb9ac" fill-opacity="0.1245355" points="29,103 2,103 -22,247 23,262 23,328 81,321 51,290 504,346"/>
		<polygon fill="#004686" fill-opacity="0.48589903" points="159,110 254,164 329,164 353,204 376,179 636,190 636,365 532,385"/>
		<polygon fill="#fbf0e1" fill-opacity="0.8955908" points="124,477 636,474 604,474 279,474 66,474 651,496 695,397 304,210"/>
		<polygon fill="#fff8ee" fill-opacity="0.6362228" points="117,276 251,265 268,198 299,238 358,238 288,288 296,229 125,226"/>
		<polygon fill="#0a2747" fill-opacity="0.8110532" points="641,324 538,323 507,323 497,341 520,339 532,337 573,376 616,371"/>
		<polygon fill="#fff8ea" fill-opacity="0.7516805" points="222,436 187,370 275,379 264,424 418,399 431,428 439,373 376,336"/>
		<polygon fill="#0a2e58" fill-opacity="0.82357013" points="355,313 365,321 382,325 377,332 377,296 508,315 472,349 401,357"/>
		<polygon fill="#1c0400" fill-opacity="0.22464263" points="323,523 333,499 368,499 355,461 354,469 361,459 373,449 252,467"/>
		<polygon fill="#47392e" fill-opacity="0.367074" points="656,380 340,460 410,504 461,484 636,474 636,320 625,320 585,324"/>
		<polygon fill="#c3a997" fill-opacity="0.99686825" points="384,210 357,239 270,246 278,257 278,238 270,213 315,210 350,203"/>
		<polygon fill="#1f0900" fill-opacity="0.84314954" points="305,265 305,341 322,335 304,347 325,347 351,347 337,347 337,284"/>
		<polygon fill="#d17122" fill-opacity="0.14035374" points="91,508 119,486 26,456 26,435 194,412 218,290 218,253 433,171"/>
		<polygon fill="#dda6b6" fill-opacity="0.11300081" points="457,200 435,194 436,158 403,155 407,135 494,111 643,118 626,192"/>
		<polygon fill="#fff7db" fill-opacity="0.23841059" points="379,63 -62,419 -17,457 363,462 336,460 359,473 439,476 364,461"/>
		<polygon fill="#002e57" fill-opacity="0.6878403" points="157,272 160,377 213,361 270,365 187,400 259,400 87,136 67,167"/>
		<polygon fill="#ffffff" fill-opacity="0.25110412" points="204,63 331,68 370,327 450,402 270,422 333,266 357,221 68,268"/>
		<polygon fill="#fffef7" fill-opacity="0.8868028" points="525,326 537,350 584,378 571,392 442,426 429,426 437,372 412,359"/>
		<polygon fill="#153e6f" fill-opacity="0.9594174" points="54,187 92,135 116,228 22,211 25,244 27,349 0,352 -48,181"/>
		<polygon fill="#000000" fill-opacity="0.32339317" points="346,319 257,327 308,341 291,282 269,272 203,310 174,234 134,432"/>
		<polygon fill="#000003" fill-opacity="0.1656084" points="101,120 298,161 176,367 159,234 145,226 149,406 49,401 55,195"/>
		<polygon fill="#c3a688" fill-opacity="0.9544353" points="206,177 206,272 260,272 306,337 255,382 189,362 209,399 206,349"/>
		<polygon fill="#f3b36b" fill-opacity="0.40605885" points="167,421 27,410 25,222 39,229 103,221 182,173 180,244 153,292"/>
		<polygon fill="#060500" fill-opacity="0.043604553" points="585,352 606,293 502,258 492,267 547,319 581,367 497,338 191,-3"/>
		<polygon fill="#eae3e0" fill-opacity="0.9955769" points="222,213 231,215 239,215 289,214 277,211 253,211 245,211 245,212"/>
		<polygon fill="#afe0ff" fill-opacity="0.13803494" points="203,60 259,106 183,-6 253,-33 640,-3 664,56 371,221 208,484"/>
		<polygon fill="#b3aba4" fill-opacity="0.9380974" points="24,232 26,292 53,332 47,272 118,212 32,211"/>
		<polygon fill="#070000" fill-opacity="0.5065603" points="317,257 334,264 338,286 298,324 303,325 337,298 307,350 307,264"/>
		<polygon fill="#0a2341" fill-opacity="0.5703724" points="-44,286 -81,481 48,456 100,371 62,298 51,333 60,334 86,307"/>
		<polygon fill="#beb19e" fill-opacity="0.6769769" points="16,219 158,362 180,259 223,208 154,200 61,227 38,223 29,207"/>
		<polygon fill="#003970" fill-opacity="0.93151104" points="233,159 188,130 148,123 88,133 74,212 222,213 241,193 210,183"/>
		<polygon fill="#eaddd0" fill-opacity="0.77400035" points="319,278 316,285 274,276 374,325 378,326 303,309 293,321 331,317"/>
		<polygon fill="#2d7bbe" fill-opacity="0.45693696" points="217,214 66,-65 338,208"/>
		<polygon fill="#e8d9b2" fill-opacity="0.42931044" points="72,305 26,297 26,356 -10,358 61,372 107,385 121,428 -5,384"/>
		<polygon fill="#eeede6" fill-opacity="0.49585837" points="305,342 350,346 369,337 369,372 337,370 333,366 351,353 381,303"/>
		<polygon fill="#d5e5ff" fill-opacity="0.0990324" points="11,74 31,75 56,179 78,155 519,201 636,201 636,107 396,84"/>
		<polygon fill="#1f5285" fill-opacity="0.99493414" points="373,335 370,321 370,309 370,294 370,229 468,275 544,335 404,343"/>
		<polygon fill="#99b0c8" fill-opacity="0.5263347" points="382,34 373,185 365,188 624,182 644,193 652,69 568,64 382,65"/>
		<polygon fill="#60483a" fill-opacity="0.18851942" points="467,391 418,404 426,420 402,442 438,446 461,468 480,426 554,406"/>
		<polygon fill="#3c2103" fill-opacity="0.07270974" points="318,349 327,344 349,308 380,225 285,225"/>
		<polygon fill="#030403" fill-opacity="0.058624685" points="443,324 340,339 336,345 315,345 319,306 315,304 309,293 309,247"/>
		<polygon fill="#006bff" fill-opacity="0.080927074" points="0,144 0,64 0,0 636,0 636,161 636,92 472,80 250,212"/>
		<polygon fill="#e1d3bb" fill-opacity="0.5594906" points="155,236 319,248 372,268 319,266 319,297 319,298 317,311 352,271"/>
		<polygon fill="#8aed8c" fill-opacity="0.013245642" points="83,71 403,34 439,152 351,237 305,294 352,314 414,293 412,272"/>
		<polygon fill="#92c0fb" fill-opacity="0.2188108" points="277,67 634,63 319,17 176,23 121,107 146,135 308,197 413,282"/>
		<polygon fill="#225086" fill-opacity="0.7066666" points="374,212 358,202 353,191 353,181 392,183 432,186 385,223 385,257"/>
		<polygon fill="#8c7b6a" fill-opacity="0.35514504" points="127,408 58,232 39,231 33,231 32,206 25,250 32,342 -23,366"/>
		<polygon fill="#f2e8dc" fill-opacity="0.8287191" points="263,234 278,257 274,274 301,288 306,310 306,334 348,376 261,397"/>
		<polygon fill="#fff6e5" fill-opacity="0.8184294" points="25,367 43,368 123,389 154,471 112,475 0,474 -19,341"/>
		<polygon fill="#79fff5" fill-opacity="0.03758371" points="163,70 195,83 64,113 81,134 151,154 154,159 141,170 190,176"/>
		<polygon fill="#0b0000" fill-opacity="0.08006579" points="493,450 483,530 520,523 520,442 467,458 517,424 542,403 485,415"/>
		<polygon fill="#2d0000" fill-opacity="0.15968978" points="276,213 225,216 203,219 284,231 277,237 264,250 240,283 229,255"/>
		<polygon fill="#114171" fill-opacity="0.6863817" points="411,358 438,350 430,350 445,350 520,327 427,307 404,324 363,329"/>
		<polygon fill="#e5feff" fill-opacity="0.23847443" points="156,88 168,79 230,79 280,100 305,119 316,126 334,158"/>
		<polygon fill="#04030b" fill-opacity="0.0773803" points="278,485 223,416 160,429 159,472 119,361 178,389 235,364 119,474"/>
		<polygon fill="#087dff" fill-opacity="0.09701681" points="4,13 26,21 272,136 229,199 256,207 273,218 356,207 317,133"/>
		<polygon fill="#fff9f0" fill-opacity="0.74856037" points="223,407 149,409 107,385 61,371 -57,352 -65,412 -11,469 35,461"/>
		<polygon fill="#030700" fill-opacity="0.32000005" points="73,261 74,286 50,320 68,272 77,314 75,352 52,344 52,311"/>
		<polygon fill="#7e5858" fill-opacity="0.120135486" points="139,92 138,61 115,29 116,31 117,27 166,39 202,70 207,72"/>
		<polygon fill="#0057b0" fill-opacity="0.15973163" points="0,55 130,53 364,95 394,70 411,10 493,0 64,0 0,0"/>
		<polygon fill="#ffffff" fill-opacity="0.23961169" points="76,315 76,280 149,350 180,392 163,386 163,350 291,392 207,454"/>
		<polygon fill="#311e05" fill-opacity="0.07788789" points="491,410 457,434 472,442 492,422 593,446 576,448 576,383 533,382"/>
		<polygon fill="#2969ae" fill-opacity="0.23514736" points="383,-27 307,27 196,61 288,104 343,156 341,114 332,93 78,-6"/>
		<polygon fill="#ea9871" fill-opacity="0.024424434" points="128,31 324,40 383,40 373,74 388,103 439,173 412,215 173,28"/>
		<polygon fill="#21ccff" fill-opacity="0.063178" points="558,228 459,228 459,204 397,200 369,204 322,305 393,305 543,291"/>
		<polygon fill="#f6e4c9" fill-opacity="0.5392759" points="318,313 323,301 315,317 328,341 360,364 369,367 370,346 370,200"/>
		<polygon fill="#afa18d" fill-opacity="0.9906069" points="220,363 171,365 147,364 147,337 168,407 243,401 264,398 262,371"/>
		<polygon fill="#648fbd" fill-opacity="0.65933967" points="226,82 249,87 369,111 410,83 467,64 623,85 651,53 515,20"/>
		<polygon fill="#e3dbc9" fill-opacity="0.519605" points="366,308 330,328 335,335 321,337 316,344 307,332 319,351 319,308"/>
		<polygon fill="#b4adcc" fill-opacity="0.08784026" points="378,226 424,293 550,279 550,269 606,267 634,275 660,237 618,237"/>
		<polygon fill="#ecddc9" fill-opacity="0.3083914" points="274,364 267,400 224,391 224,414 129,432 129,473 303,467 180,364"/>
		<polygon fill="#0e1218" fill-opacity="0.28411108" points="167,408 167,392 181,394 234,398 250,398 255,398 253,400"/>
		<polygon fill="#3e290a" fill-opacity="0.15588593" points="369,233 369,240 257,246 167,297 179,233 254,228 198,228 168,218"/>
		<polygon fill="#623209" fill-opacity="0.12871855" points="375,227 369,220 358,225 339,240 362,240"/>
		<polygon fill="#9a0219" fill-opacity="0.016957939" points="30,309 282,306 550,300 552,254 433,216 456,240 438,233 202,193"/>
		<polygon fill="#194979" fill-opacity="0.97955346" points="482,329 549,352 604,370 636,367 651,387 651,290 573,299 413,313"/>
		<polygon fill="#e6c394" fill-opacity="0.37039268" points="279,214 276,276 207,270 199,268 199,280 172,271 188,220 179,212"/>
		<polygon fill="#000916" fill-opacity="0.71751827" points="205,274 206,308 194,364 163,364 160,353 160,301 160,273 182,253"/>
		<polygon fill="#0c0000" fill-opacity="0.038740396" points="663,395 618,495 591,482 571,467 582,479 575,472 544,478 587,383"/>
		<polygon fill="#774606" fill-opacity="0.11659342" points="109,308 70,315 90,329 142,384 139,442 163,440 178,440 138,337"/>
		<polygon fill="#94a1af" fill-opacity="0.086396575" points="588,319 476,253 476,230 636,235 661,295 628,312 588,312 588,273"/>
		<polygon fill="#7da6c7" fill-opacity="0.10051185" points="106,133 88,144 77,147 90,112 90,86 36,69 141,32 168,32"/>
		<polygon fill="#ffffba" fill-opacity="0.2467069" points="199,71 216,79 206,33 214,39 218,44 204,16 199,37 199,86"/>
		<polygon fill="#3d2308" fill-opacity="0.19085747" points="332,291 337,319 322,322 322,347 337,347 332,330 303,301 303,291"/>
		<polygon fill="#120800" fill-opacity="0.22908896" points="209,36 198,40 208,64 187,75 138,89 187,79 172,79 197,79"/>
		<polygon fill="#4e8fc0" fill-opacity="0.13470078" points="7,56 103,76 110,136 261,173 155,278 201,276 171,126 193,4"/>
		<polygon fill="#0069bb" fill-opacity="0.30127662" points="187,211 269,212 299,210 300,192 183,104 117,116 97,129 154,203"/>
		<polygon fill="#9da4bc" fill-opacity="0.078986585" points="567,219 58,369 376,244"/>
		<polygon fill="#ff4e67" fill-opacity="0.020634592" points="122,4 230,50 258,188 226,188 195,139 193,123 19,216 -21,189"/>
		<polygon fill="#7c107f" fill-opacity="0.021203816" points="41,-10 107,19 101,-32 170,37 201,37 201,20 279,19 359,136"/>
		<polygon fill="#ffee61" fill-opacity="0.05163181" points="145,95 65,95 -34,56 -11,119 -15,162 -76,178 18,203 18,232"/>
		<polygon fill="#6d6b65" fill-opacity="0.68804014" points="84,342 113,369 152,393 164,391 171,399 168,410 85,378 44,368"/>
		<polygon fill="#d37200" fill-opacity="0.20887613" points="196,25 210,21 207,25 218,44 217,42 205,49 212,50 196,51"/>
		<polygon fill="#184a18" fill-opacity="0.020394385" points="335,256 165,243 46,239 282,364 361,376 366,371 344,350 319,300"/>
		<polygon fill="#a8c085" fill-opacity="0.026920855" points="131,55 264,119 308,177 197,201 200,169 215,197 215,159 98,73"/>
		<polygon fill="#020d2f" fill-opacity="0.04288435" points="304,417 424,401 424,421 352,499 348,474 280,494 256,481 248,426"/>
		<polygon fill="#17406b" fill-opacity="0.990161" points="535,347 599,325 698,347 641,365 635,367 616,371 579,372"/>
		<polygon fill="#81b5ff" fill-opacity="0.08510113" points="407,225 505,225 500,227 474,231 482,264 414,283 373,220 254,153"/>
		<polygon fill="#004af1" fill-opacity="0.064062" points="555,0 586,0 642,-39 642,-7 605,92 525,130 400,90 404,0"/>
		<polygon fill="#b09f90" fill-opacity="0.98513603" points="255,270 178,261 115,300 111,233 245,235 258,272 197,261 210,288"/>
	</g>
</svg>
