<svg xmlns="http://www.w3.org/2000/svg" width="235px" height="176px" version="1.2">
	<!-- generated by Polycasso (http://polycasso.sourceforge.net) -->
	<rect x="0" y="0" width="235px" height="176px" fill="black"/>
	<g comp-op="src-over">
		<polygon fill="#ffffe4" fill-opacity="0.94661516" points="235,0 235,0 111,-21 13,-21 -69,10 194,152 242,208"/>
		<polygon fill="#ffffff" fill-opacity="0.98813623" points="0,0 0,176 258,176 235,0"/>
		<polygon fill="#3d491b" fill-opacity="0.76316726" points="86,53 93,48 91,48 80,96 80,46 80,71 75,62 78,78"/>
		<polygon fill="#b50a2c" fill-opacity="0.37201262" points="18,57 33,57 50,63 22,59 63,81 81,107 94,94 38,63"/>
		<polygon fill="#fcff00" fill-opacity="0.23201036" points="45,176 54,87 210,92 210,145 129,145 165,107 56,163 60,175"/>
		<polygon fill="#9e3700" fill-opacity="0.57969505" points="170,117 158,152 209,145 212,106 199,84 193,70 142,78 100,66"/>
		<polygon fill="#13222a" fill-opacity="0.9645533" points="209,136 204,138 184,142 188,149 177,128 163,133 157,164 203,167"/>
		<polygon fill="#865724" fill-opacity="0.8351771" points="17,55 -72,119 -90,135 -113,204 215,187 77,90"/>
		<polygon fill="#ed9949" fill-opacity="0.6961534" points="-9,85 -18,63 35,53 88,50 99,91 119,96 150,139 117,142"/>
		<polygon fill="#2a0207" fill-opacity="0.9808799" points="160,76 175,103 183,113 192,124 205,94 176,61 190,80 216,67"/>
		<polygon fill="#5b5652" fill-opacity="0.8826228" points="60,69 60,78 62,78 79,128 51,101 49,99 47,83 54,69"/>
		<polygon fill="#5b2f17" fill-opacity="0.6421735" points="75,71 68,71 68,79 56,78 67,149 190,170 200,176 204,169"/>
		<polygon fill="#ffc785" fill-opacity="0.88604504" points="167,90 167,118 156,118 165,88 122,94 146,88 120,61 114,57"/>
		<polygon fill="#864a03" fill-opacity="0.4384458" points="213,56 146,107 45,124 60,177 104,191 188,199 207,164 207,34"/>
		<polygon fill="#3f2400" fill-opacity="0.30881488" points="111,147 204,171 207,162 210,118 156,78 208,139 185,131 -8,82"/>
		<polygon fill="#001122" fill-opacity="0.09700519" points="187,169 220,155 167,166 144,152 168,156 152,128 106,85 53,169"/>
		<polygon fill="#f1b373" fill-opacity="0.5451079" points="10,65 55,66 47,88 43,68 56,70 46,48 17,53 -46,83"/>
		<polygon fill="#280e04" fill-opacity="0.14302415" points="112,28 111,59 72,163 39,117 41,131 42,120 19,118 23,108"/>
		<polygon fill="#000000" fill-opacity="0.9654928" points="118,132 109,122 115,116 125,113 130,113 130,125 126,126 130,126"/>
		<polygon fill="#ffbd29" fill-opacity="0.43721008" points="33,51 135,92 157,111 202,53 194,81 204,68 129,75 68,49"/>
		<polygon fill="#67321a" fill-opacity="0.98608154" points="138,45 114,79 133,42 137,31 145,26 149,28 143,39 145,36"/>
		<polygon fill="#ffffd3" fill-opacity="0.2746941" points="87,122 139,112 171,134 171,121 124,68 158,26 158,18 98,23"/>
		<polygon fill="#73481b" fill-opacity="0.88877594" points="81,92 97,103 95,104 66,105 97,140 69,122 137,131 122,138"/>
		<polygon fill="#e00310" fill-opacity="0.074255824" points="99,38 101,100 106,45 116,74 112,77 77,60 135,33 114,8"/>
		<polygon fill="#ff7b1c" fill-opacity="0.11297339" points="136,58 155,118 124,118 136,130 161,162 208,46 173,71 51,130"/>
		<polygon fill="#55020e" fill-opacity="0.1865521" points="86,62 119,70 90,59 110,57 110,42 131,14 121,23 134,23"/>
		<polygon fill="#ffffff" fill-opacity="0.9670243" points="220,89 203,7 143,43 204,88 205,94 221,88 221,86"/>
		<polygon fill="#000000" fill-opacity="0.28497404" points="200,131 180,131 167,147 192,142 213,121 191,73 191,95 166,96"/>
		<polygon fill="#8b5213" fill-opacity="0.39547342" points="191,205 180,161 199,161 199,155 177,152 82,158 102,158 109,152"/>
		<polygon fill="#8f5720" fill-opacity="0.4146511" points="192,88 196,104 202,120 198,82 210,100 211,120 201,118 177,70"/>
		<polygon fill="#ffab69" fill-opacity="0.16817039" points="150,166 160,122 189,117 163,135 161,144 161,162 165,169 175,189"/>
		<polygon fill="#000001" fill-opacity="0.40515202" points="72,67 56,75 52,75 49,89 84,101 118,115 103,111 92,97"/>
		<polygon fill="#00cbb5" fill-opacity="0.03126383" points="61,56 56,124 128,138 109,159 103,159 104,194 75,204 23,93"/>
		<polygon fill="#907e63" fill-opacity="0.65738034" points="66,127 66,144 48,152 2,165 -4,146 8,87 -23,88 63,98"/>
		<polygon fill="#2d1600" fill-opacity="0.6117949" points="73,64 93,97 68,117 82,118 79,118 70,124 60,111 55,98"/>
		<polygon fill="#92ab74" fill-opacity="0.09391838" points="191,104 176,98 176,71 160,85 160,66 198,77 198,87 190,78"/>
		<polygon fill="#fab15c" fill-opacity="0.23364061" points="-17,74 42,78 31,93 35,101 109,54 110,69 97,49 11,53"/>
		<polygon fill="#1a0e00" fill-opacity="0.4697116" points="184,72 196,80 203,96 189,96 176,144 201,144 214,131 154,79"/>
		<polygon fill="#ffdc7c" fill-opacity="0.37369937" points="89,89 126,116 137,130 158,130 195,122 195,133 169,92 163,72"/>
		<polygon fill="#ffce5d" fill-opacity="0.18348587" points="178,64 200,109 186,142 205,151 196,145 199,139 208,111 208,88"/>
		<polygon fill="#451a04" fill-opacity="0.10347533" points="19,174 15,200 61,132 68,63 74,69 81,69 88,75 217,174"/>
		<polygon fill="#ffcd94" fill-opacity="0.28630936" points="134,124 133,130 115,131"/>
		<polygon fill="#ac6200" fill-opacity="0.3148266" points="130,106 157,142 193,120 192,121 160,126 138,117 150,130 131,137"/>
		<polygon fill="#ffffe6" fill-opacity="0.29993653" points="125,89 108,80 111,4 91,88 109,110 160,114 160,51 20,46"/>
		<polygon fill="#68512a" fill-opacity="0.24841475" points="160,74 179,71 164,91 164,96 184,95 206,100 213,104 202,87"/>
		<polygon fill="#fffff5" fill-opacity="0.359244" points="133,57 155,85 172,74 158,74 189,65 208,98 207,84 192,77"/>
		<polygon fill="#eb9535" fill-opacity="0.13747519" points="84,103 103,117 110,107 110,123 127,115 131,132 150,132 129,99"/>
		<polygon fill="#ffd058" fill-opacity="0.20989007" points="88,67 168,75 147,111 164,128 197,137 171,92 153,95 88,86"/>
		<polygon fill="#65470e" fill-opacity="0.61786777" points="88,56 89,55 78,54 78,55 89,59"/>
		<polygon fill="#91581f" fill-opacity="0.4893338" points="202,134 207,142 205,142 191,133 168,136 168,127 199,118 211,110"/>
		<polygon fill="#694812" fill-opacity="0.98671526" points="122,70 125,61 123,63 120,69 118,71 118,73 121,76 132,90"/>
		<polygon fill="#fcc150" fill-opacity="0.12020326" points="33,49 20,52 9,66 139,83 139,74 113,122 89,95 84,82"/>
		<polygon fill="#ffffc4" fill-opacity="0.2231676" points="93,44 82,61 82,76 103,73 67,40 68,40 67,76 51,69"/>
		<polygon fill="#fbb547" fill-opacity="0.09901756" points="87,86 88,119 107,119 120,133 98,130 91,126 105,118 109,7"/>
		<polygon fill="#35fbfc" fill-opacity="0.016275644" points="125,105 154,130 157,139 170,141 148,142 145,163 174,166 189,161"/>
		<polygon fill="#0e16a4" fill-opacity="0.18896347" points="106,22 110,19 110,26 117,17 151,26 125,66 140,84 85,58"/>
		<polygon fill="#ffffff" fill-opacity="0.2570287" points="58,67 66,65 66,80 63,87 72,80 68,83"/>
		<polygon fill="#ff881f" fill-opacity="0.24421042" points="1,57 -25,102 4,103 5,107 9,108 61,109 60,86 61,47"/>
		<polygon fill="#1d0000" fill-opacity="0.101085424" points="56,115 52,83 52,85 71,64 88,76 101,79 92,94 107,106"/>
		<polygon fill="#ceffa9" fill-opacity="0.08802718" points="7,114 43,122 67,142 77,122 91,101 70,113 68,64 -27,132"/>
		<polygon fill="#3d1a23" fill-opacity="0.12575185" points="146,38 143,18 117,6 127,11 114,11 103,32 108,21 121,38"/>
		<polygon fill="#3e1000" fill-opacity="0.5456891" points="141,23 122,65 120,68 116,79 127,62 143,39 147,29 147,23"/>
		<polygon fill="#ed932e" fill-opacity="0.28251684" points="173,97 168,78 170,71 131,88 131,93 122,75 125,61 130,86"/>
		<polygon fill="#150906" fill-opacity="0.04361105" points="110,58 81,76 123,59 147,98 119,78 140,68 148,81 130,98"/>
		<polygon fill="#c5c4c9" fill-opacity="0.038118184" points="53,66 39,110 116,121 116,143 113,131 143,124 145,161 112,159"/>
		<polygon fill="#da8526" fill-opacity="0.13628393" points="80,119 69,122 75,137 58,142 38,153 72,150 61,128 58,66"/>
		<polygon fill="#d5b5b2" fill-opacity="0.06887561" points="146,155 161,168 168,118 151,130 125,130 88,123 87,140 85,154"/>
		<polygon fill="#ff8d00" fill-opacity="0.08755702" points="128,100 106,81 61,58 101,99 118,106 116,125 91,125 0,114"/>
		<polygon fill="#2d64d6" fill-opacity="0.028633416" points="-46,184 89,110 10,100 -21,88 -15,79 -16,63 3,59 9,57"/>
		<polygon fill="#f8e0c3" fill-opacity="0.5474231" points="121,70 171,73 139,71 127,63 139,46 147,35 143,42 149,30"/>
		<polygon fill="#e6c870" fill-opacity="0.4963783" points="121,66 121,78 148,85 141,88 135,80 131,90 128,93 134,69"/>
		<polygon fill="#fffc8c" fill-opacity="0.15966201" points="196,137 201,140 223,181 205,168 236,225 179,205 180,188 223,137"/>
		<polygon fill="#dadff0" fill-opacity="0.8720237" points="131,24 131,11 137,30 127,53 117,53 113,34 129,42 125,46"/>
		<polygon fill="#000000" fill-opacity="0.1293838" points="67,132 50,154 52,144 62,143 91,80 66,101 66,81 53,81"/>
		<polygon fill="#002666" fill-opacity="0.099101245" points="51,72 63,61 61,69 61,101 47,100 41,115 40,112 57,161"/>
		<polygon fill="#a47940" fill-opacity="0.30774486" points="76,138 54,157 69,155 82,156 88,166 111,260 59,174 43,144"/>
		<polygon fill="#ffc06f" fill-opacity="0.12294263" points="93,120 99,136 79,130 81,103 93,103 106,121 80,107 74,113"/>
		<polygon fill="#fffaff" fill-opacity="0.091813385" points="27,-8 53,38 157,143 170,127 172,129 179,125 162,107 174,115"/>
		<polygon fill="#ff3262" fill-opacity="0.104304135" points="94,42 116,8 119,16 112,44 112,58 108,66 93,77 92,45"/>
		<polygon fill="#160000" fill-opacity="0.07197356" points="54,143 66,147 92,179 78,146 81,146 96,115 78,121 46,131"/>
		<polygon fill="#100205" fill-opacity="0.083504856" points="74,132 71,144 51,165 93,135 85,145 94,148 103,148 105,142"/>
		<polygon fill="#ffffff" fill-opacity="0.7543919" points="235,176 199,191 207,155 207,152 215,102 230,64 227,9 176,6"/>
		<polygon fill="#ffffea" fill-opacity="0.15695077" points="194,161 199,161 210,157 210,151 201,151 204,139 206,144 226,133"/>
		<polygon fill="#402000" fill-opacity="0.09607381" points="-27,77 45,79 20,82 48,82 51,82 38,97 36,88 34,93"/>
		<polygon fill="#dc4f00" fill-opacity="0.102811456" points="78,88 136,107 165,125 211,105 206,160 193,206 156,194 195,161"/>
		<polygon fill="#935f2b" fill-opacity="0.38973087" points="75,113 142,119 136,119 136,141 126,135 134,111 134,114 105,111"/>
		<polygon fill="#825016" fill-opacity="0.5803787" points="211,141 198,138 196,143 205,150 206,165 184,143 184,138 176,128"/>
		<polygon fill="#aa26b6" fill-opacity="0.018282056" points="-6,192 -26,50 159,176 81,176 17,168 156,125 115,157 100,102"/>
		<polygon fill="#ff8500" fill-opacity="0.04552853" points="-5,113 -5,61 62,57 101,83 72,98 74,110 48,129 48,111"/>
		<polygon fill="#fe6200" fill-opacity="0.103726566" points="126,87 164,117 185,129 203,136 166,92 185,104 201,81 171,67"/>
		<polygon fill="#ffffff" fill-opacity="0.3756162" points="143,34 135,-16 232,12 235,110 181,70 152,75 123,65 136,58"/>
		<polygon fill="#c45900" fill-opacity="0.17938489" points="151,28 124,58 130,77 143,87 125,64 124,55 136,28 136,18"/>
		<polygon fill="#5b3200" fill-opacity="0.44901544" points="123,73 148,91 128,71 124,69 120,65"/>
		<polygon fill="#000006" fill-opacity="0.05193466" points="154,87 162,80 187,73 201,100 177,132 209,101 191,103 10,27"/>
		<polygon fill="#740000" fill-opacity="0.04153365" points="112,84 109,70 97,64 61,41 61,56 112,60 85,48 110,45"/>
		<polygon fill="#ffb304" fill-opacity="0.07827431" points="15,49 68,90 115,82 116,79 98,59 78,62 83,49 39,49"/>
		<polygon fill="#001000" fill-opacity="0.14773989" points="92,40 88,54 84,55 89,55 92,51 98,40 103,32 110,24"/>
		<polygon fill="#fffff7" fill-opacity="0.028054297" points="108,173 105,146 113,136 119,126 84,139 73,157 50,160 23,175"/>
		<polygon fill="#bc8039" fill-opacity="0.43664604" points="117,110 127,110 134,111 116,114 113,129 117,134 88,92 88,89"/>
		<polygon fill="#d2af89" fill-opacity="0.07003242" points="106,130 110,127 137,128 102,132 99,120 85,99 96,120 120,116"/>
	</g>
</svg>
