<svg xmlns="http://www.w3.org/2000/svg" width="299px" height="400px" version="1.2">
	<!-- generated by Polycasso (http://polycasso.sourceforge.net) -->
	<rect x="0" y="0" width="299px" height="400px" fill="black"/>
	<g comp-op="src-over">
		<polygon fill="#efe949" fill-opacity="0.28274018" points="105,285 190,370 195,292 154,323 179,293 154,313 139,375"/>
		<polygon fill="#b38b84" fill-opacity="0.16430855" points="203,1 163,109 203,134 203,173 127,77 162,36 205,83"/>
		<polygon fill="#deb090" fill-opacity="0.35585356" points="67,350 3,350 5,367 18,371 16,380 21,389 10,400"/>
		<polygon fill="#f813e6" fill-opacity="0.05126834" points="6,239 20,280 91,311 113,311 97,220 122,232 110,243"/>
		<polygon fill="#7b96a9" fill-opacity="0.27467984" points="-26,65 139,325 91,337 60,340 -20,340"/>
		<polygon fill="#bdfde8" fill-opacity="0.10859448" points="188,257 225,338 299,329 299,269 268,281 265,268 174,148"/>
		<polygon fill="#ddb95e" fill-opacity="0.18782145" points="25,233 -34,220 -11,208 -50,293 -49,341 56,339"/>
		<polygon fill="#d5bf98" fill-opacity="0.59474844" points="90,85 152,39 201,141 209,94 231,132 156,233 45,177"/>
		<polygon fill="#cec2e0" fill-opacity="0.63436157" points="151,206 185,195 204,213 217,213 201,259"/>
		<polygon fill="#c0b39e" fill-opacity="0.35236204" points="232,329 205,273 121,141 118,-11 276,95 325,173 341,315"/>
		<polygon fill="#9f9a74" fill-opacity="0.67492366" points="252,210 66,243 64,159 95,39 191,39 237,123 162,382"/>
		<polygon fill="#a08641" fill-opacity="0.18727899" points="50,228 58,228 66,228 110,253 83,153 47,132 47,121"/>
		<polygon fill="#efffff" fill-opacity="0.8703692" points="130,135 172,226 134,231 143,194 144,169"/>
		<polygon fill="#bda596" fill-opacity="0.53677976" points="0,400 299,400 299,0 0,0 0,0"/>
		<polygon fill="#1c1916" fill-opacity="0.5262752" points="-12,360 45,369 56,364 65,358 52,379 59,356 6,356"/>
		<polygon fill="#6df1f7" fill-opacity="0.025307655" points="49,61 2,89 9,155 52,254 -14,310 170,315 93,268"/>
		<polygon fill="#bbf7ff" fill-opacity="0.021325052" points="334,34 317,11 329,-2 303,415 29,102 62,85 11,51"/>
		<polygon fill="#0e0000" fill-opacity="0.43850172" points="102,384 194,312 217,322 217,318 220,355 220,359 185,386"/>
		<polygon fill="#b03a58" fill-opacity="0.014166117" points="140,-7 220,45 290,104 226,163 152,163"/>
		<polygon fill="#cbb8a8" fill-opacity="0.7518793" points="135,357 135,360 175,360 157,328 158,316 158,314 144,316"/>
		<polygon fill="#a9ba39" fill-opacity="0.027458012" points="150,60 101,105 83,103 90,41"/>
		<polygon fill="#060000" fill-opacity="0.30669618" points="100,318 25,327 0,328 3,400 21,394 87,393 123,392"/>
		<polygon fill="#022099" fill-opacity="0.98281914" points="21,229 68,229 68,258 52,259 21,259 21,216"/>
		<polygon fill="#ffffdb" fill-opacity="0.14605874" points="129,82 169,111 194,168 159,168 139,224 145,177 113,148"/>
		<polygon fill="#a89171" fill-opacity="0.70228046" points="55,233 54,255 58,253 66,253 68,261 91,236"/>
		<polygon fill="#fffffa" fill-opacity="0.15881395" points="214,291 162,341 128,341 128,355 160,355 189,363 221,363"/>
		<polygon fill="#59b2d5" fill-opacity="0.016830683" points="133,128 148,123 169,144 180,144 181,87 170,86 153,86"/>
		<polygon fill="#0bb1ed" fill-opacity="0.020857215" points="140,170 136,184 111,272 142,278 65,169"/>
		<polygon fill="#ffac9c" fill-opacity="0.1037392" points="93,318 -9,332 16,337 13,352 16,345"/>
		<polygon fill="#0cbe01" fill-opacity="0.022251487" points="-43,90 -32,15 195,6 248,6 313,-3 300,86 120,84"/>
		<polygon fill="#b1a99f" fill-opacity="0.36951363" points="266,219 252,234 257,304 247,304 225,335 190,335 165,315"/>
		<polygon fill="#b0ae73" fill-opacity="0.34542578" points="155,359 166,374 161,365 154,365 151,365 133,354 124,362"/>
		<polygon fill="#fff6ff" fill-opacity="0.044283688" points="182,304 168,304 192,339 179,358 179,361 207,362 222,352"/>
		<polygon fill="#74625a" fill-opacity="0.3167882" points="231,203 114,279 250,271 253,273 269,274 317,249 231,161"/>
		<polygon fill="#807a53" fill-opacity="0.8785066" points="156,371 116,371 112,373 160,373 145,358 149,316 151,307"/>
		<polygon fill="#161301" fill-opacity="0.4870363" points="186,229 112,229 110,283 138,324 163,314 182,300 192,279"/>
		<polygon fill="#aa6722" fill-opacity="0.26026505" points="149,253 106,314 119,288 124,271 140,279 109,286 165,267"/>
		<polygon fill="#382e21" fill-opacity="0.57288384" points="166,190 177,277 176,306 121,305 117,304 103,264 158,264"/>
		<polygon fill="#ffefaf" fill-opacity="0.2141515" points="137,314 160,355 209,295 201,302 224,267 224,304 230,319"/>
		<polygon fill="#354342" fill-opacity="0.16369528" points="237,139 233,113 226,100 205,68 209,115 219,100 219,139"/>
		<polygon fill="#000aa1" fill-opacity="0.55666023" points="61,257 76,266 66,261 62,243 41,249 70,223"/>
		<polygon fill="#faffa5" fill-opacity="0.067658186" points="139,281 154,298 162,275 172,342 187,314 115,262 129,281"/>
		<polygon fill="#bdb162" fill-opacity="0.5362734" points="69,216 69,236 78,238 60,233 57,233 52,239 65,239"/>
		<polygon fill="#070203" fill-opacity="0.09880149" points="145,228 111,249 127,282 115,289 143,234 97,250 104,227"/>
		<polygon fill="#c5c38c" fill-opacity="0.28333747" points="230,146 252,165 187,168"/>
		<polygon fill="#aaa37b" fill-opacity="0.3114378" points="233,290 226,205 181,202 187,259 174,259 180,262 159,250"/>
		<polygon fill="#740e1d" fill-opacity="0.010451615" points="60,346 59,383 114,386 157,342 157,390 49,199"/>
		<polygon fill="#ffcc45" fill-opacity="0.44528306" points="33,233 47,270 47,271 47,232"/>
		<polygon fill="#eddbcc" fill-opacity="0.16309434" points="145,127 203,295 169,295 184,280 195,275 206,282"/>
		<polygon fill="#c79f58" fill-opacity="0.14525062" points="62,40 92,40 85,75 69,145 228,179 279,125 192,40"/>
		<polygon fill="#b8a296" fill-opacity="0.7066416" points="123,233 124,223 95,243"/>
		<polygon fill="#ffe4ba" fill-opacity="0.08091611" points="123,393 102,363 138,320 126,303 116,350 69,350 50,386"/>
		<polygon fill="#968a84" fill-opacity="0.70623696" points="105,181 134,228 116,225 116,223 111,254 98,301 33,153"/>
		<polygon fill="#00001a" fill-opacity="0.2012652" points="219,122 225,127 232,140 240,149 301,135 277,95 201,48"/>
		<polygon fill="#0000b5" fill-opacity="0.26807457" points="45,213 45,226 21,228 21,240 21,256 28,259 36,261"/>
		<polygon fill="#9a8d61" fill-opacity="0.22238308" points="103,176 166,189 189,197 229,174 278,265 253,317 242,283"/>
		<polygon fill="#8d7869" fill-opacity="0.55219734" points="45,151 66,170 31,145 37,169 58,169 41,261"/>
		<polygon fill="#4236ad" fill-opacity="0.077304065" points="232,167 151,169 153,182 153,186 191,251 222,302"/>
		<polygon fill="#8a3e31" fill-opacity="0.06815696" points="236,293 192,345 221,361 239,331 194,332 161,370 192,306"/>
		<polygon fill="#ffe7d3" fill-opacity="0.09032005" points="81,91 211,282 220,183 218,106 261,226 -7,228 -55,198"/>
		<polygon fill="#f4e7df" fill-opacity="0.049140036" points="-26,289 4,269 18,269 54,269 86,288 86,305 66,338"/>
		<polygon fill="#f8e282" fill-opacity="0.0847891" points="-11,54 89,89 89,43 165,37 179,142 4,238 -11,173"/>
		<polygon fill="#9b8665" fill-opacity="0.80236197" points="46,245 46,252 28,253 19,280 26,259 30,245"/>
		<polygon fill="#5c545d" fill-opacity="0.10054904" points="103,184 110,181 122,169 65,168 82,193 82,257 32,157"/>
		<polygon fill="#ffffd4" fill-opacity="0.1918537" points="204,313 210,313 222,327 197,325 128,312 132,316 143,330"/>
		<polygon fill="#495a7f" fill-opacity="0.05527824" points="30,241 39,241 29,227 39,132 52,176 52,225 20,199"/>
		<polygon fill="#596e83" fill-opacity="0.040872574" points="0,0 0,205 0,165 148,165 127,136 213,0 160,0"/>
		<polygon fill="#ffd59d" fill-opacity="0.18660158" points="134,256 134,236 127,256"/>
		<polygon fill="#715c4d" fill-opacity="0.41829532" points="287,319 186,310 165,319 152,315 163,328 167,391 251,463"/>
		<polygon fill="#8c8b86" fill-opacity="0.18170363" points="176,333 222,147 274,96 246,73 279,79 302,80 302,305"/>
		<polygon fill="#fc86d0" fill-opacity="0.027894795" points="65,297 129,305 163,365 128,365 118,356 110,351"/>
		<polygon fill="#443100" fill-opacity="0.105544806" points="229,370 183,394 175,407 75,393 125,385 241,296 307,314"/>
		<polygon fill="#cdad4a" fill-opacity="0.19702673" points="25,179 28,249 36,249 36,235 30,232 25,227"/>
		<polygon fill="#bca57e" fill-opacity="0.09366089" points="86,3 184,98 172,166 244,166 223,136 204,53 221,19"/>
		<polygon fill="#2e0000" fill-opacity="0.13368195" points="145,235 159,202 161,210 163,204 175,233 165,218 154,168"/>
		<polygon fill="#c4595b" fill-opacity="0.028294623" points="188,144 99,19 73,97"/>
		<polygon fill="#bcae8b" fill-opacity="0.077049196" points="165,382 148,368 193,372"/>
		<polygon fill="#c0b298" fill-opacity="0.37302727" points="106,266 121,338 70,340 31,293 31,287 73,252 122,216"/>
		<polygon fill="#a2978c" fill-opacity="0.49735856" points="63,319 89,331 106,331 138,322 90,274 90,262 25,258"/>
		<polygon fill="#000009" fill-opacity="0.085145116" points="188,37 206,44 240,21 225,7 109,7 76,58 37,43"/>
		<polygon fill="#ffb291" fill-opacity="0.069529355" points="41,372 42,363 41,357 76,397 108,397 128,347 122,344"/>
		<polygon fill="#f02185" fill-opacity="0.008277118" points="182,99 165,36 49,8 16,41 82,67 33,164 30,240"/>
		<polygon fill="#86acd6" fill-opacity="0.012789488" points="36,58 63,90 75,67 296,218 299,296 299,322 267,340"/>
		<polygon fill="#403c7f" fill-opacity="0.11455989" points="46,168 46,187 111,199 104,190 133,219 145,169"/>
		<polygon fill="#f0f1d2" fill-opacity="0.028457522" points="213,101 239,155 273,168 315,130 322,223 203,212 76,-14"/>
		<polygon fill="#ddf686" fill-opacity="0.016383708" points="240,165 274,138 257,72 210,88 207,74 176,146"/>
		<polygon fill="#000022" fill-opacity="0.037996173" points="85,72 85,130 79,130 52,151 40,133 49,133 28,141"/>
		<polygon fill="#030004" fill-opacity="0.07664931" points="161,328 144,307 181,310 210,334 161,340 37,352 57,310"/>
		<polygon fill="#4c3504" fill-opacity="0.24531603" points="114,207 114,188 126,205 137,289 136,267 135,195 114,195"/>
		<polygon fill="#79633b" fill-opacity="0.8326387" points="180,198 154,188 137,187 143,184 128,197 132,227 128,207"/>
		<polygon fill="#7a9a9f" fill-opacity="0.19628435" points="132,220 139,196 132,196"/>
		<polygon fill="#cdddaf" fill-opacity="0.08180082" points="60,339 84,339 48,339 48,315 60,328"/>
		<polygon fill="#ffec56" fill-opacity="0.052408814" points="29,239 43,239 64,248 64,253 50,243 -2,44 -4,16"/>
		<polygon fill="#a18e94" fill-opacity="0.060640812" points="64,258 85,271 119,252 50,185 93,186 113,174 90,174"/>
		<polygon fill="#11532d" fill-opacity="0.04930049" points="214,216 236,200 236,240 235,263 264,263 240,236 235,235"/>
		<polygon fill="#000000" fill-opacity="0.052404642" points="87,262 59,223 76,243 65,260 45,259 32,258 32,298"/>
		<polygon fill="#5647f5" fill-opacity="0.110081494" points="129,250 135,250 137,254"/>
		<polygon fill="#6f22bb" fill-opacity="0.023110926" points="48,66 0,51 0,159 -16,206 18,206 -2,217 73,240"/>
		<polygon fill="#8a7e71" fill-opacity="0.74116457" points="247,167 268,225 266,245 267,253 267,273 224,242"/>
		<polygon fill="#caac67" fill-opacity="0.038117945" points="106,42 136,26 104,93 56,78 40,69 34,61 34,42"/>
		<polygon fill="#89881c" fill-opacity="0.023447216" points="220,299 216,272 226,272 226,310 245,238 265,238 250,299"/>
		<polygon fill="#fdffe3" fill-opacity="0.05591446" points="130,247 130,256 109,260 105,256 122,267 144,274"/>
		<polygon fill="#776138" fill-opacity="0.5251816" points="133,334 109,335 111,359 124,359 136,363"/>
		<polygon fill="#6893c4" fill-opacity="0.017254889" points="21,164 21,118 56,84 90,71 99,87 94,89 73,98"/>
		<polygon fill="#000e05" fill-opacity="0.5587798" points="173,385 167,380 121,374 121,387 147,374 207,374"/>
		<polygon fill="#ffff9c" fill-opacity="0.0500679" points="148,309 154,244 172,244 167,283 167,260 187,260"/>
		<polygon fill="#ffff47" fill-opacity="0.04427743" points="110,167 118,122 111,124 91,71 69,132 54,153 46,170"/>
		<polygon fill="#4c00dd" fill-opacity="0.019050598" points="140,34 98,44 98,1 140,1"/>
		<polygon fill="#2b370f" fill-opacity="0.17946225" points="71,340 216,384 213,331 226,331 160,357 142,357"/>
		<polygon fill="#a5977e" fill-opacity="0.97460705" points="181,200 178,205 130,205"/>
		<polygon fill="#b5dcde" fill-opacity="0.05307764" points="48,0 57,17 119,42 119,0"/>
		<polygon fill="#c0d5b4" fill-opacity="0.0027270317" points="137,246 208,160 101,275"/>
		<polygon fill="#fffac9" fill-opacity="0.153682" points="142,283 129,261 193,258 165,270 164,274 155,302 138,293"/>
		<polygon fill="#ffbe1e" fill-opacity="0.03436035" points="132,170 175,167 119,150 113,153 86,153 57,156"/>
		<polygon fill="#6c4550" fill-opacity="0.10807085" points="185,306 254,361 186,375 229,392 178,353 248,306"/>
		<polygon fill="#c1147c" fill-opacity="0.006887853" points="149,393 110,408 110,393 102,393 100,364 108,382"/>
		<polygon fill="#b39696" fill-opacity="0.24087155" points="155,171 163,171 193,186 179,234 182,238 214,229 171,232"/>
		<polygon fill="#000105" fill-opacity="0.2751872" points="141,290 141,266 151,266 187,291 194,276 195,280 192,263"/>
		<polygon fill="#077cad" fill-opacity="0.012969911" points="232,273 229,323 166,323 215,266"/>
		<polygon fill="#363229" fill-opacity="0.81475" points="176,250 181,304 178,304 168,304 159,289 151,275 154,288"/>
		<polygon fill="#f6caff" fill-opacity="0.10950035" points="179,321 178,321 178,335 164,324 164,312 205,312"/>
		<polygon fill="#f5fff4" fill-opacity="0.029149294" points="234,58 299,58 299,161 299,224 261,170 233,165 222,165"/>
		<polygon fill="#c749ca" fill-opacity="0.008247912" points="62,100 29,132 15,130 -12,87"/>
		<polygon fill="#535560" fill-opacity="0.08599496" points="165,23 198,67 211,85 225,135 231,143 278,126 235,36"/>
		<polygon fill="#53511f" fill-opacity="0.057536542" points="299,9 299,322 299,400 245,358 299,321"/>
		<polygon fill="#d1b165" fill-opacity="0.065476835" points="3,122 129,200 173,250 176,296 191,293 170,291 175,260"/>
		<polygon fill="#eb24b1" fill-opacity="0.0050700903" points="0,50 0,302 86,19"/>
		<polygon fill="#2b0036" fill-opacity="0.04115182" points="175,220 190,223 196,216 255,204 267,223 267,267 256,292"/>
		<polygon fill="#826db4" fill-opacity="0.016260266" points="145,193 88,284 45,237 45,272 64,244 71,187 64,160"/>
		<polygon fill="#f6ffbd" fill-opacity="0.04086238" points="116,-15 124,97 104,94 109,168 128,168 138,120 80,68"/>
		<polygon fill="#afe5c7" fill-opacity="0.0660243" points="187,228 188,296 212,299 217,288 197,305 189,323 188,322"/>
		<polygon fill="#abab8c" fill-opacity="0.050490856" points="160,312 80,147 95,147 92,119 79,101"/>
		<polygon fill="#588a5e" fill-opacity="0.005418241" points="29,81 10,102 66,256 82,256 89,262 94,256"/>
		<polygon fill="#ffa7d5" fill-opacity="0.05246073" points="209,256 228,264 226,264 231,295 208,379 183,379 178,308"/>
		<polygon fill="#bde7a1" fill-opacity="0.0042894483" points="161,191 166,240 195,229 254,219 254,127 18,7"/>
		<polygon fill="#004817" fill-opacity="0.020969689" points="0,154 50,159 24,189 19,222 40,227 110,278 -22,68"/>
		<polygon fill="#ffb89c" fill-opacity="0.065313876" points="49,333 31,316 84,360 81,373 55,348 68,348 55,306"/>
		<polygon fill="#cc797a" fill-opacity="0.03140652" points="55,-18 98,-18 120,2 59,2 117,2 125,119"/>
		<polygon fill="#9a152a" fill-opacity="0.027009547" points="84,210 93,220 65,248 64,207"/>
		<polygon fill="#998b84" fill-opacity="0.19256371" points="195,294 178,311 168,337 221,296 275,284 256,318 217,323"/>
		<polygon fill="#fffdd3" fill-opacity="0.084056616" points="91,50 97,50 98,52 84,41 91,59"/>
		<polygon fill="#4e2c44" fill-opacity="0.09123129" points="75,322 6,329 32,283 -9,283 -29,205 13,206 16,119"/>
		<polygon fill="#ffc358" fill-opacity="0.07099843" points="171,281 205,261 181,269 160,227 186,307 171,264"/>
		<polygon fill="#8e5903" fill-opacity="0.029501438" points="174,37 170,70 177,74 190,81 207,68 177,17"/>
		<polygon fill="#e5b7e8" fill-opacity="0.015115142" points="65,289 82,303 116,314 107,269 146,149 115,149 57,122"/>
		<polygon fill="#7ab876" fill-opacity="0.033179462" points="214,221 219,235 192,277 193,297 195,333 238,318"/>
		<polygon fill="#0055ff" fill-opacity="0.044537902" points="167,279 167,258 186,264 186,274 167,262 145,262"/>
		<polygon fill="#59e287" fill-opacity="0.007341981" points="178,241 151,258 115,265 136,273 122,358 155,371 141,373"/>
		<polygon fill="#fedbdf" fill-opacity="0.04616511" points="232,217 226,180 168,201 173,240 175,238 209,228 250,199"/>
		<polygon fill="#5b5e42" fill-opacity="0.04736656" points="229,314 204,269 240,272 205,294 196,314"/>
		<polygon fill="#583d0e" fill-opacity="0.01704061" points="119,172 150,208 160,233"/>
		<polygon fill="#b4047b" fill-opacity="0.011505246" points="115,76 126,76 116,89 118,77 134,59 118,33"/>
		<polygon fill="#375fcf" fill-opacity="0.013006806" points="240,118 242,135 251,129 270,124 283,170 251,185 233,176"/>
		<polygon fill="#dae8c0" fill-opacity="0.067635596" points="31,398 48,380 48,367 50,363 122,396 93,396 54,386"/>
		<polygon fill="#bc1008" fill-opacity="0.023424506" points="152,205 156,199 170,185 170,171 118,199"/>
		<polygon fill="#e4ea26" fill-opacity="0.011948347" points="186,276 198,345 172,276"/>
		<polygon fill="#0cbe00" fill-opacity="0.024788976" points="176,231 196,175 199,177 196,170 153,170 147,185 143,191"/>
		<polygon fill="#e17f81" fill-opacity="0.07056922" points="260,197 97,321 68,341"/>
		<polygon fill="#d86b7d" fill-opacity="0.009728134" points="239,274 155,354 198,370 226,353 233,315 239,279 226,54"/>
		<polygon fill="#f3fee2" fill-opacity="0.035117984" points="187,349 161,349 198,386 181,340"/>
		<polygon fill="#59491d" fill-opacity="0.031933844" points="23,93 4,71 82,66"/>
		<polygon fill="#a63202" fill-opacity="0.0033451319" points="194,116 130,100 171,139"/>
	</g>
</svg>
