<svg xmlns="http://www.w3.org/2000/svg" width="400px" height="358px" version="1.2">
	<!-- generated by Polycasso (http://polycasso.sourceforge.net) -->
	<rect x="0" y="0" width="400px" height="358px" fill="black"/>
	<g comp-op="src-over">
		<polygon fill="#ffffff" fill-opacity="0.990103" points="0,358 0,0 400,0 400,358"/>
		<polygon fill="#be560b" fill-opacity="0.39294583" points="321,124 325,122 311,121 311,134 299,102 359,91"/>
		<polygon fill="#79290b" fill-opacity="0.8157756" points="351,56 269,56 280,93 316,101 317,113 305,143 271,89 263,151"/>
		<polygon fill="#50392c" fill-opacity="0.74065894" points="86,313 49,344 49,335"/>
		<polygon fill="#4a1f00" fill-opacity="0.43440276" points="343,336 325,325 263,293 283,293 267,278 279,253 298,346 334,351"/>
		<polygon fill="#74103e" fill-opacity="0.0053958297" points="288,38 249,5 292,20 87,16"/>
		<polygon fill="#ffffff" fill-opacity="0.9373846" points="78,287 78,259 208,6 273,42 263,182 289,371 96,371 -16,262"/>
		<polygon fill="#000014" fill-opacity="0.8919134" points="190,131 192,142 174,131 162,149 222,158 300,253 8,192 39,204"/>
		<polygon fill="#473002" fill-opacity="0.47766012" points="121,317 118,331 140,331 136,323"/>
		<polygon fill="#ffffff" fill-opacity="0.47869015" points="27,334 159,323 259,368 259,282 433,321 306,345 38,97 19,13"/>
		<polygon fill="#5b3e20" fill-opacity="0.67094934" points="47,403 54,354 63,289 89,276"/>
		<polygon fill="#fffeef" fill-opacity="0.60850406" points="126,264 166,280 400,358 390,371 326,320 298,280 281,309 272,317"/>
		<polygon fill="#e81300" fill-opacity="0.40968496" points="340,51 324,53 208,185 250,155 203,185 283,170 336,170"/>
		<polygon fill="#b64100" fill-opacity="0.21429753" points="299,291 291,286 272,267 284,310 292,327 319,318 308,307 319,280"/>
		<polygon fill="#ffffff" fill-opacity="0.340631" points="95,0 377,0 400,0 424,241 401,228 81,162 54,269 -90,-26"/>
		<polygon fill="#a84235" fill-opacity="0.33830243" points="284,281 283,267 219,207 264,228 257,237 297,281 297,263"/>
		<polygon fill="#fffffe" fill-opacity="0.7304298" points="382,340 319,349 321,390 412,460 405,164 227,193 354,340 125,340"/>
		<polygon fill="#050300" fill-opacity="0.62283915" points="83,145 139,191 218,135 259,127 311,84 291,131 283,135 267,145"/>
		<polygon fill="#b28f70" fill-opacity="0.47770262" points="114,71 170,34 173,232 113,161 61,161 61,234 83,246 355,230"/>
		<polygon fill="#564024" fill-opacity="0.3027323" points="312,146 45,272 236,233 283,198 301,244 172,209 172,174 78,143"/>
		<polygon fill="#ffffde" fill-opacity="0.69590527" points="106,0 15,28 155,222 186,245 95,268 81,315 0,0 16,0"/>
		<polygon fill="#8f6b29" fill-opacity="0.44395524" points="297,79 280,19 323,44 307,86 279,5 287,3 260,10 262,24"/>
		<polygon fill="#f29925" fill-opacity="0.21875632" points="115,148 155,189 183,245 164,234 63,281 67,282 67,280 9,300"/>
		<polygon fill="#ffffff" fill-opacity="0.9986493" points="-10,55 230,-35 251,86 238,123 291,-84 141,142 91,168 23,195"/>
		<polygon fill="#ffffff" fill-opacity="0.3082978" points="5,74 174,105 254,146 204,146 216,105 278,93 78,7 5,24"/>
		<polygon fill="#000000" fill-opacity="0.17980224" points="277,244 244,260 238,257 233,257 213,241 138,241 138,274 359,4"/>
		<polygon fill="#fff9c9" fill-opacity="0.87222415" points="97,235 115,268 131,240 167,223 70,209 121,209 145,218 145,202"/>
		<polygon fill="#773d1d" fill-opacity="0.38810146" points="272,4 278,11 295,27 300,31 283,64 283,50 317,81 265,55"/>
		<polygon fill="#c06000" fill-opacity="0.30986822" points="280,281 280,289 310,298 310,306 283,306 291,259 285,174 255,234"/>
		<polygon fill="#503928" fill-opacity="0.65261894" points="118,148 146,145 99,183 67,177 64,187 55,181 74,164 55,169"/>
		<polygon fill="#320708" fill-opacity="0.42414135" points="168,147 119,204 116,204 113,190 113,184 109,153 113,147"/>
		<polygon fill="#f9e9be" fill-opacity="0.32964253" points="-84,167 51,246 11,305 11,342 114,358 134,269 113,169 94,167"/>
		<polygon fill="#000000" fill-opacity="0.9815297" points="352,96 331,68 308,69 308,77 287,85 289,85 289,126 273,126"/>
		<polygon fill="#ffffff" fill-opacity="0.6035305" points="176,349 412,-20 425,381 330,331 312,322 312,273 257,247 137,228"/>
		<polygon fill="#0f4c00" fill-opacity="0.071986854" points="279,291 293,273 316,258 318,242 302,214 290,247 320,211"/>
		<polygon fill="#d95f00" fill-opacity="0.3049097" points="350,124 330,115 338,136 317,139 343,154"/>
		<polygon fill="#ffffff" fill-opacity="0.546462" points="370,46 243,208 261,237 262,229 262,208 361,246 424,16 324,-60"/>
		<polygon fill="#000000" fill-opacity="0.007455468" points="45,232 47,233 115,228 45,228 61,245 133,213 45,213"/>
		<polygon fill="#bb7200" fill-opacity="0.16395164" points="104,171 128,179 99,298 139,331 72,331 90,331 60,349 49,349"/>
		<polygon fill="#ffffff" fill-opacity="0.60296935" points="125,195 113,256 100,311 167,348 190,344 179,237 195,246 195,237"/>
		<polygon fill="#ecafa6" fill-opacity="0.50069124" points="259,171 337,153 309,113 320,113 325,93 275,107 275,101"/>
		<polygon fill="#ffffdf" fill-opacity="0.37364239" points="367,69 360,54 349,145 305,215 303,145 264,137 350,137 230,36"/>
		<polygon fill="#ffffff" fill-opacity="0.1916976" points="84,197 108,186 119,175 98,236 124,206 79,101 79,4"/>
		<polygon fill="#e9a676" fill-opacity="0.25786263" points="321,238 266,180 319,180 329,180 267,126 219,186 224,205 219,245"/>
		<polygon fill="#ac780e" fill-opacity="0.23308074" points="142,224 144,233 142,240 133,247 106,274 115,274 134,266 155,256"/>
		<polygon fill="#e14406" fill-opacity="0.008761466" points="60,310 127,346 155,280 182,285 195,268 278,357 71,306"/>
		<polygon fill="#a25b30" fill-opacity="0.30403596" points="36,258 41,278 43,287 72,278 62,297 84,285 106,285 84,255"/>
		<polygon fill="#313600" fill-opacity="0.036833286" points="330,211 312,206 299,222 294,222 317,203 316,162 345,193 330,221"/>
		<polygon fill="#14180a" fill-opacity="0.6050548" points="228,147 160,89 210,154 179,147 143,148 176,167 244,213 247,202"/>
		<polygon fill="#260002" fill-opacity="0.12975222" points="193,61 242,179 242,216 273,228 268,179 225,232 207,197 152,155"/>
		<polygon fill="#eca85a" fill-opacity="0.28387296" points="226,136 242,159 242,196 245,223 248,245 310,296 319,228 316,245"/>
		<polygon fill="#000000" fill-opacity="0.014857888" points="122,116 143,128 322,236 315,268 296,229 347,274 274,214 131,133"/>
		<polygon fill="#ffe100" fill-opacity="0.10283899" points="239,149 280,285 309,285 311,312 311,325 282,288 330,228 348,119"/>
		<polygon fill="#000000" fill-opacity="0.34693813" points="238,145 271,177 242,150 238,164 215,187 176,205 123,179 176,141"/>
		<polygon fill="#000d00" fill-opacity="0.027117372" points="151,304 131,332 104,331 124,324"/>
		<polygon fill="#1c0000" fill-opacity="0.02904892" points="115,256 185,205 137,273 137,258 102,271 102,245 86,253 120,268"/>
		<polygon fill="#7c0000" fill-opacity="0.044681728" points="287,284 306,264 269,264 269,223 260,161 261,232 294,217 271,188"/>
		<polygon fill="#340000" fill-opacity="0.030792296" points="236,115 295,232 310,242 299,271 276,299 286,318 312,318 280,301"/>
		<polygon fill="#b16424" fill-opacity="0.1918956" points="-5,72 14,56 19,64 32,90 39,138 111,255 111,205 87,183"/>
		<polygon fill="#9f0000" fill-opacity="0.13860989" points="265,221 284,224 260,257 284,257 264,242 275,189 259,164 249,164"/>
		<polygon fill="#feffce" fill-opacity="0.48013127" points="108,214 184,240 240,236 249,207 247,178 257,197 263,230 259,249"/>
		<polygon fill="#fff3b7" fill-opacity="0.24984491" points="328,203 337,226 344,187 338,187 302,160 279,220 269,220 257,126"/>
		<polygon fill="#473b08" fill-opacity="0.30190325" points="104,172 181,181 170,168 185,190 180,171 177,132"/>
		<polygon fill="#5e1e00" fill-opacity="0.35018665" points="349,56 349,139 349,78 329,54 349,90 317,108 273,120 273,32"/>
		<polygon fill="#ffffff" fill-opacity="0.5033279" points="85,289 119,289 186,269 148,326 120,315 93,299 85,317 85,279"/>
		<polygon fill="#220000" fill-opacity="0.03436458" points="286,135 309,164 304,189 304,170 179,105"/>
		<polygon fill="#9d5b3a" fill-opacity="0.31248778" points="311,250 174,226 215,248"/>
		<polygon fill="#ffdb88" fill-opacity="0.50673604" points="326,33 288,44 269,110 332,124 332,136 322,136 308,149 293,88"/>
		<polygon fill="#720000" fill-opacity="0.06849116" points="144,191 144,218 136,210 122,195 101,188 217,242 76,191"/>
		<polygon fill="#ffab7d" fill-opacity="0.52365965" points="267,23 276,62 280,26 255,-3"/>
		<polygon fill="#130000" fill-opacity="0.32569373" points="273,68 266,71 230,131 285,45 279,77"/>
		<polygon fill="#ffffff" fill-opacity="0.16867352" points="7,166 114,183 114,228 123,250 112,250 42,331 125,311 133,179"/>
		<polygon fill="#000000" fill-opacity="0.22030598" points="257,143 302,155 225,101 265,99 229,140 258,125 241,105 228,183"/>
		<polygon fill="#000000" fill-opacity="0.036961436" points="169,42 173,225 152,220 90,295 137,266 141,260 162,224 178,202"/>
		<polygon fill="#c17e31" fill-opacity="0.50525504" points="291,113 341,115 347,132 353,132 334,130 279,130 274,100"/>
		<polygon fill="#ffffff" fill-opacity="0.982411" points="23,137 203,143 244,129 272,96 261,22 284,-42 195,-3 -48,44"/>
		<polygon fill="#521100" fill-opacity="0.22016484" points="165,205 113,153 141,150 129,150 191,147 179,142 193,140 337,125"/>
		<polygon fill="#b46700" fill-opacity="0.27054304" points="30,237 30,309 23,320 31,326 58,342 15,347 8,190 -24,342"/>
		<polygon fill="#660900" fill-opacity="0.19432616" points="302,158 292,122 330,126 321,131 299,131 292,131 287,158"/>
		<polygon fill="#140007" fill-opacity="0.19096178" points="222,241 253,239 250,215 250,202 213,197 149,183 160,212 185,238"/>
		<polygon fill="#eab965" fill-opacity="0.43870336" points="78,243 69,252 41,262 27,271 85,286"/>
		<polygon fill="#fcffff" fill-opacity="0.090572596" points="210,188 245,146 262,193 261,228 249,208 235,187 316,140 316,187"/>
		<polygon fill="#000000" fill-opacity="0.1765452" points="229,134 140,195 188,141 243,135 243,211 234,228 128,214 255,127"/>
		<polygon fill="#59250a" fill-opacity="0.38594836" points="348,65 295,53 295,144 320,122 325,121 352,126 331,119"/>
		<polygon fill="#5055f6" fill-opacity="0.083859384" points="62,130 91,158 70,139 70,153 62,145 160,172 193,166 176,224"/>
		<polygon fill="#ffffb3" fill-opacity="0.123901725" points="-26,147 130,195 121,179 116,225 85,186 163,247 179,182"/>
		<polygon fill="#000000" fill-opacity="0.057774007" points="248,263 232,261 241,216 232,207 232,160 252,197 252,216 247,192"/>
		<polygon fill="#ff7200" fill-opacity="0.048859954" points="257,132 273,103 275,36 309,162 289,197 171,229 126,222 55,209"/>
		<polygon fill="#ffffff" fill-opacity="0.9626867" points="-10,343 157,-9 129,0 0,0 -24,325 179,409 118,331 13,351"/>
		<polygon fill="#dd9f00" fill-opacity="0.10082805" points="36,212 56,262 91,197 0,291 87,287 137,271 141,230 68,170"/>
		<polygon fill="#2c0000" fill-opacity="0.27830487" points="266,15 290,49 294,41 305,41 290,22 298,26 256,-6 269,-6"/>
		<polygon fill="#5d2c00" fill-opacity="0.051377237" points="41,329 18,329 18,348 -16,348 73,348 145,154 153,151 400,92"/>
		<polygon fill="#603c00" fill-opacity="0.034289777" points="194,248 237,255 240,184 249,229 317,220 310,248 305,270 233,248"/>
		<polygon fill="#a13b00" fill-opacity="0.28700733" points="48,184 54,184 84,193 64,191 117,191 109,151 109,157 88,155"/>
		<polygon fill="#d0a65a" fill-opacity="0.4470874" points="350,29 325,62 304,56 360,12 318,72 339,76 347,93"/>
		<polygon fill="#df841d" fill-opacity="0.1899342" points="102,257 66,272 63,173 80,162 75,166 85,162 166,180"/>
		<polygon fill="#ffffff" fill-opacity="0.22759604" points="354,120 336,103 424,88 400,146 400,240 378,189 305,163 321,120"/>
		<polygon fill="#000000" fill-opacity="0.013555348" points="320,172 302,296 300,277 299,268 318,283 320,286 297,266 283,226"/>
		<polygon fill="#ffa527" fill-opacity="0.072255075" points="41,223 72,167 132,158 148,247 148,274 133,265 103,294 41,276"/>
		<polygon fill="#ffffff" fill-opacity="0.26599485" points="400,46 317,46 299,38 299,34 412,169 412,150 343,129 405,201"/>
		<polygon fill="#c96016" fill-opacity="0.18502355" points="256,261 258,251 275,251 275,209 261,223 232,239 225,250"/>
		<polygon fill="#00001c" fill-opacity="0.4941011" points="310,48 296,60 295,61 307,65 318,65"/>
		<polygon fill="#ff7500" fill-opacity="0.064855635" points="112,170 151,192 182,229 143,212 127,204 50,196 56,173"/>
		<polygon fill="#ffffff" fill-opacity="0.12474382" points="229,115 338,36 386,50 400,43 369,85 94,68 39,92 28,65"/>
		<polygon fill="#000000" fill-opacity="0.1937477" points="329,107 281,107 317,69 338,78 328,69 339,71 329,57 351,30"/>
		<polygon fill="#3c2310" fill-opacity="0.2693429" points="332,76 332,64 340,64 339,42 341,11 360,12 338,11 356,11"/>
		<polygon fill="#efce95" fill-opacity="0.63624185" points="312,224 312,246 272,234 272,246 279,303 284,311 293,320 310,320"/>
		<polygon fill="#583b2d" fill-opacity="0.10228574" points="93,154 232,154 249,181 261,167 261,181 237,181 197,253 163,217"/>
		<polygon fill="#000000" fill-opacity="0.24563926" points="353,5 347,69 343,29 336,31 336,67 327,64"/>
		<polygon fill="#d15500" fill-opacity="0.09344149" points="29,291 33,292 31,286 31,262 62,262"/>
		<polygon fill="#fff5bd" fill-opacity="0.24962038" points="242,234 252,245 254,246 254,250 249,263 194,241 214,235 216,232"/>
		<polygon fill="#3e3128" fill-opacity="0.2277525" points="199,143 234,157 252,199 243,181 131,144 134,188 138,211 199,222"/>
		<polygon fill="#110000" fill-opacity="0.079903126" points="34,246 83,153 83,158 152,149 108,149 97,162 59,170"/>
		<polygon fill="#ffffff" fill-opacity="0.014981031" points="319,239 272,282 290,224 294,253 268,241 310,248 250,264 265,3"/>
		<polygon fill="#ffffe0" fill-opacity="0.5810029" points="312,24 290,47 393,65 364,62"/>
		<polygon fill="#000000" fill-opacity="0.08524299" points="188,248 185,305 185,307 192,141 219,137 343,105 334,46"/>
		<polygon fill="#050000" fill-opacity="0.10776526" points="291,284 297,277 298,253 325,227"/>
		<polygon fill="#600000" fill-opacity="0.043474555" points="291,221 282,203 244,244 273,253 301,253 307,282 301,273 293,251"/>
		<polygon fill="#ffffff" fill-opacity="0.04817921" points="63,123 157,192 169,197 169,227 142,242 128,242 86,171 145,204"/>
		<polygon fill="#190f00" fill-opacity="0.13103253" points="82,157 163,153 105,149 105,180 112,185 116,183"/>
		<polygon fill="#181a24" fill-opacity="0.26201545" points="187,148 150,203 157,203 161,213 143,203 124,172 124,152 239,134"/>
		<polygon fill="#000000" fill-opacity="0.21096289" points="46,203 85,161 114,167 120,162 123,167 115,169 113,155 76,157"/>
		<polygon fill="#ea7600" fill-opacity="0.138565" points="350,32 350,87 267,62 339,55 301,50 274,39 282,45"/>
		<polygon fill="#f0d9ec" fill-opacity="0.052059233" points="208,222 183,216 205,238 179,211"/>
		<polygon fill="#705930" fill-opacity="0.3427391" points="287,71 312,54 314,49 307,46"/>
		<polygon fill="#ea7800" fill-opacity="0.037506163" points="255,148 282,161 351,195 300,195 308,209 341,203 333,176 352,115"/>
		<polygon fill="#231001" fill-opacity="0.5416639" points="209,140 227,157 185,173 174,173 174,145 145,144 195,140 200,140"/>
		<polygon fill="#ff9100" fill-opacity="0.073667705" points="288,265 322,327 343,340 343,348 344,348 293,345 288,345 288,116"/>
		<polygon fill="#fffffd" fill-opacity="0.02388984" points="217,191 269,208 309,281 276,290 279,229 138,160 213,235 279,281"/>
		<polygon fill="#ddd7aa" fill-opacity="0.15151697" points="53,247 87,247 46,262"/>
		<polygon fill="#000011" fill-opacity="0.1543178" points="300,58 284,65 305,68 300,75"/>
		<polygon fill="#a76e07" fill-opacity="0.09399021" points="70,173 42,194 85,192"/>
		<polygon fill="#ffffe5" fill-opacity="0.23433447" points="355,130 306,161 306,138 294,138 291,139 278,145 332,140 266,135"/>
		<polygon fill="#c05535" fill-opacity="0.06587607" points="168,145 168,192 143,170"/>
		<polygon fill="#a833af" fill-opacity="0.057093978" points="290,294 286,275 281,317"/>
		<polygon fill="#ab3600" fill-opacity="0.110262215" points="317,133 317,185 337,193 343,193 336,212 317,162 308,119"/>
		<polygon fill="#feffdf" fill-opacity="0.3295129" points="249,222 261,244 257,237 266,239 296,265 296,283 300,247 276,238"/>
		<polygon fill="#fff0bd" fill-opacity="0.5856847" points="341,344 315,344 296,344 294,309 303,312"/>
		<polygon fill="#ffffda" fill-opacity="0.20322675" points="280,231 293,324 375,347 289,323 328,345 340,345 315,310 315,288"/>
		<polygon fill="#ffffff" fill-opacity="0.38573176" points="342,48 358,136 399,79 307,109 342,122 400,158 342,98 342,78"/>
		<polygon fill="#ffffff" fill-opacity="0.034905612" points="245,181 234,124 228,142 228,96 220,146 230,152 225,152 261,134"/>
		<polygon fill="#000000" fill-opacity="0.056880236" points="261,128 303,167 284,112 284,99 273,105 252,142 257,184 236,128"/>
		<polygon fill="#f9ec00" fill-opacity="0.058977067" points="252,151 264,260 298,335 294,247 286,210 317,234 349,202 349,77"/>
		<polygon fill="#9b1400" fill-opacity="0.23110676" points="326,100 342,125 345,131 328,118 325,105"/>
		<polygon fill="#eedb57" fill-opacity="0.029683948" points="144,256 103,222 55,236 23,236 61,270 61,226 36,256"/>
		<polygon fill="#000000" fill-opacity="0.0520432" points="311,135 311,125 314,141 311,130 282,114 234,138 234,151"/>
		<polygon fill="#ffffff" fill-opacity="0.07386953" points="55,223 101,222 131,224 151,182 44,182 16,227 128,322 73,190"/>
		<polygon fill="#ffab61" fill-opacity="0.16883802" points="240,276 256,196 252,213 285,170 288,128 288,104 347,116 272,80"/>
		<polygon fill="#3d9b7a" fill-opacity="0.029148996" points="216,183 212,215 240,219 234,251 270,224 306,191 225,264"/>
		<polygon fill="#efbb58" fill-opacity="0.48776" points="339,95 339,98 350,107 353,105 358,102 356,108 353,86 353,80"/>
		<polygon fill="#ffffff" fill-opacity="0.028312981" points="50,-59 125,14 243,233 282,272 232,318 237,247 216,232 212,224"/>
		<polygon fill="#ffffff" fill-opacity="0.025526643" points="242,143 201,238 155,227 148,238 135,308 176,314 271,254"/>
		<polygon fill="#ffffff" fill-opacity="0.035080433" points="249,112 200,157 211,136 216,149 215,113 250,162 199,131"/>
		<polygon fill="#2a1e13" fill-opacity="0.5929773" points="325,116 301,116 319,116 304,83 315,83 324,102 295,83 301,127"/>
		<polygon fill="#000000" fill-opacity="0.0587641" points="154,253 156,250 157,214 159,215 108,270"/>
		<polygon fill="#d3c57c" fill-opacity="0.0062652826" points="139,105 102,27 146,2 170,41 170,1 276,89 277,66 269,2"/>
		<polygon fill="#392a11" fill-opacity="0.17126828" points="137,184 125,201 220,247 225,168 231,143 167,143 102,153 90,155"/>
		<polygon fill="#ffffff" fill-opacity="0.02954787" points="4,165 4,220 17,269 95,244 51,241 121,169 98,158 96,97"/>
		<polygon fill="#e6ef27" fill-opacity="0.006528437" points="149,161 140,198 134,235 117,193 67,240 67,201 43,193"/>
		<polygon fill="#ffffff" fill-opacity="0.15850818" points="296,196 388,136 444,224 416,246 393,249 312,254 284,245"/>
		<polygon fill="#ffffff" fill-opacity="0.0037348866" points="26,6 122,39 321,277 321,310 255,310 278,228 255,231"/>
		<polygon fill="#7f1600" fill-opacity="0.109182775" points="63,343 63,304 84,334 76,343 38,339"/>
		<polygon fill="#ffd76c" fill-opacity="0.2791626" points="162,222 113,181 113,189 113,196 100,204 162,229 147,229 153,254"/>
		<polygon fill="#110000" fill-opacity="0.1587224" points="144,262 144,236 156,239 157,252 155,234 164,235 167,242 162,234"/>
		<polygon fill="#ffffff" fill-opacity="0.012227058" points="201,153 213,153 201,174 245,157 269,247 198,145"/>
		<polygon fill="#992c00" fill-opacity="0.2108553" points="93,280 109,266 132,249 141,246 158,246 149,257 141,265 130,274"/>
		<polygon fill="#410000" fill-opacity="0.029041708" points="240,95 344,137 322,155 287,99 305,135 296,156 252,150 338,74"/>
		<polygon fill="#000000" fill-opacity="0.07124436" points="105,208 105,250 102,254 93,230 88,204 82,204"/>
		<polygon fill="#523930" fill-opacity="0.4052437" points="250,213 243,214 220,233 218,219 202,215 196,216 160,195 186,165"/>
		<polygon fill="#000000" fill-opacity="0.004742801" points="5,146 5,159 92,168 37,248 82,217 33,228 106,263 6,91"/>
		<polygon fill="#391d00" fill-opacity="0.2765147" points="101,331 114,332 134,330 107,327 96,323 96,298 96,329"/>
		<polygon fill="#42ee74" fill-opacity="0.0035951138" points="120,8 163,41 149,52 101,69 63,71 -7,123 17,47 17,-4"/>
		<polygon fill="#de8054" fill-opacity="0.26028836" points="276,113 304,130 323,130 321,122 280,101"/>
		<polygon fill="#ffffff" fill-opacity="0.025381327" points="131,221 140,206 111,186 146,211 120,167 135,176 117,164 -8,221"/>
		<polygon fill="#5c5852" fill-opacity="0.20108712" points="229,198 234,207 225,210 212,206 245,240 248,218 225,215 201,224"/>
		<polygon fill="#000000" fill-opacity="0.054238915" points="278,278 236,191 254,206 236,186 249,191 243,206 225,206 223,205"/>
		<polygon fill="#fde3a1" fill-opacity="0.5243618" points="76,209 85,222 88,203 93,215 81,187"/>
		<polygon fill="#ff6100" fill-opacity="0.04335636" points="199,244 228,230 330,225 301,265 295,295 258,273 281,280 309,266"/>
		<polygon fill="#ffffff" fill-opacity="0.22067559" points="275,81 184,93 237,136"/>
		<polygon fill="#a07e4b" fill-opacity="0.06799525" points="110,142 117,171 104,163 128,193 106,202"/>
		<polygon fill="#ffffff" fill-opacity="0.027910411" points="41,1 63,29 101,114 156,172 230,193 237,228 256,220 252,281"/>
		<polygon fill="#360c00" fill-opacity="0.12266576" points="261,126 304,133 271,120 271,92 275,113 273,104 273,88 326,69"/>
		<polygon fill="#c6942c" fill-opacity="0.0091122985" points="336,226 318,226 271,256 221,255 69,184 129,136 151,172 149,119"/>
		<polygon fill="#c35838" fill-opacity="0.056545556" points="210,201 137,175 104,175 125,207 139,168 134,163"/>
		<polygon fill="#6e2600" fill-opacity="0.05106926" points="343,190 312,259 298,273 298,279 299,257 299,224"/>
		<polygon fill="#ffffff" fill-opacity="0.015452385" points="219,209 174,250 203,246 207,231 201,226 167,197 104,211"/>
		<polygon fill="#000000" fill-opacity="0.0027329922" points="32,249 70,314 79,299 79,180"/>
		<polygon fill="#ffffff" fill-opacity="0.0375517" points="123,80 129,85 123,156 183,144 164,144 119,144"/>
		<polygon fill="#a1a1bd" fill-opacity="0.0036011338" points="279,125 329,111 339,193 359,106 330,167 370,182 352,198 192,68"/>
		<polygon fill="#c31a5d" fill-opacity="0.06132233" points="252,160 252,189 260,161 322,142 312,130 315,116 288,117 269,101"/>
		<polygon fill="#4e83ef" fill-opacity="0.019196153" points="177,168 134,186 98,176 115,144 115,157 120,144 167,191"/>
		<polygon fill="#fece82" fill-opacity="0.37982965" points="69,303 92,306 92,305 88,317 92,322 69,332"/>
		<polygon fill="#e0946e" fill-opacity="0.1995635" points="173,210 170,222 170,217"/>
		<polygon fill="#000000" fill-opacity="0.004026592" points="-6,291 58,237 52,231"/>
		<polygon fill="#fffd03" fill-opacity="0.04522127" points="330,75 331,43 309,32"/>
		<polygon fill="#f9ed18" fill-opacity="0.02752328" points="133,190 113,190 116,172 73,189 148,242"/>
	</g>
</svg>
