<svg xmlns="http://www.w3.org/2000/svg" width="470px" height="324px" version="1.2">
	<!-- generated by Polycasso (http://polycasso.sourceforge.net) -->
	<rect x="0" y="0" width="470px" height="324px" fill="black"/>
	<g comp-op="src-over">
		<polygon fill="#d2e1ff" fill-opacity="0.9899649" points="469,0 500,33 470,31 233,-14 343,57 351,57 413,79"/>
		<polygon fill="#ffffff" fill-opacity="0.44094688" points="398,48 480,48 450,-30 470,0 18,-21 -44,57 407,343"/>
		<polygon fill="#d6eaff" fill-opacity="0.73932016" points="453,324 470,26 47,29 0,29 0,324 57,335 488,-12 5,-47"/>
		<polygon fill="#f9ffff" fill-opacity="0.48910147" points="0,324 0,324 429,324 421,0 421,272 0,336 423,307 0,0"/>
		<polygon fill="#ffffff" fill-opacity="0.9599713" points="138,383 384,419 394,303 421,313 400,283 283,206"/>
		<polygon fill="#b5af94" fill-opacity="0.85812235" points="470,324 93,324 0,324 45,288 68,309 69,312 470,0 470,0"/>
		<polygon fill="#dce8ff" fill-opacity="0.919082" points="-98,-31 86,81 206,71 213,33 216,19 275,9 251,-3 191,0"/>
		<polygon fill="#1f1700" fill-opacity="0.5526571" points="104,221 323,221 380,246 380,231 369,189 281,94 402,71 152,45"/>
		<polygon fill="#000000" fill-opacity="0.4341923" points="201,137 175,93 150,62 192,68 210,57 227,57 210,91 141,82"/>
		<polygon fill="#ffd2c1" fill-opacity="0.8988031" points="311,75 260,49 283,49 285,49 287,-2 284,55 301,55 294,75"/>
		<polygon fill="#aca64d" fill-opacity="0.4678288" points="-8,345 -15,93 174,96"/>
		<polygon fill="#a24a00" fill-opacity="0.30541533" points="58,240 26,202 8,96 458,55 462,76 447,84 419,128 172,323"/>
		<polygon fill="#ac9373" fill-opacity="0.99116325" points="344,158 415,163 324,267 340,267 287,226 305,226 342,252 340,244"/>
		<polygon fill="#080000" fill-opacity="0.7225784" points="245,60 305,60 305,65 288,99 307,88 336,62 336,53 247,17"/>
		<polygon fill="#f7dff9" fill-opacity="0.1938467" points="4,164 6,149 22,88 31,12 108,164"/>
		<polygon fill="#10a75e" fill-opacity="0.056181192" points="193,37 209,59 217,56 190,52 179,52"/>
		<polygon fill="#ffa152" fill-opacity="0.48169827" points="333,159 333,143 362,94 368,191"/>
		<polygon fill="#000000" fill-opacity="0.33340448" points="148,134 106,141 48,152 33,177 177,38"/>
		<polygon fill="#000000" fill-opacity="0.1347596" points="364,41 331,41 333,67 331,90 297,64 350,43 314,62 102,41"/>
		<polygon fill="#ffffb9" fill-opacity="0.25467294" points="49,208 53,252 52,277 6,290 53,248 53,303 234,158 230,57"/>
		<polygon fill="#aa755c" fill-opacity="0.86340076" points="160,87 317,127 277,82 269,63 269,96 286,107 310,135 345,136"/>
		<polygon fill="#822e00" fill-opacity="0.4633736" points="290,205 318,107 322,125 348,148 328,114 325,126 333,101 376,171"/>
		<polygon fill="#511f00" fill-opacity="0.6408951" points="216,202 193,143 180,200 310,219 310,186 264,159 242,202"/>
		<polygon fill="#7e5c10" fill-opacity="0.50091064" points="153,122 185,103 197,103 153,93"/>
		<polygon fill="#000000" fill-opacity="0.22361201" points="125,33 174,79 223,41 264,48 275,97 360,163 151,163 408,291"/>
		<polygon fill="#ee6e12" fill-opacity="0.27617073" points="263,43 79,139 -28,179 -100,231 115,368 221,318"/>
		<polygon fill="#d99c54" fill-opacity="0.28790647" points="470,285 470,324 470,72 151,338 470,324"/>
		<polygon fill="#fffff2" fill-opacity="0.12382007" points="6,72 191,248 347,326 32,324 39,324 347,314 33,324 33,324"/>
		<polygon fill="#fdfce7" fill-opacity="0.26583302" points="380,299 327,188 372,191 381,188"/>
		<polygon fill="#ffffcb" fill-opacity="0.113075554" points="-3,299 253,310 15,126 162,347 59,289 20,333 -3,330"/>
		<polygon fill="#672500" fill-opacity="0.56383306" points="221,146 302,146 305,192 309,199 322,228 324,230 341,264"/>
		<polygon fill="#000000" fill-opacity="0.11486113" points="128,183 148,208 12,162 221,77 336,61 336,42 159,45 124,45"/>
		<polygon fill="#f3ffcf" fill-opacity="0.33500075" points="186,361 149,336 81,258 67,307 103,236 120,236 134,246 159,242"/>
		<polygon fill="#daffff" fill-opacity="0.15978974" points="139,19 198,19 224,69 224,116 158,116 204,138 204,119 235,76"/>
		<polygon fill="#a36437" fill-opacity="0.31795716" points="219,223 256,262 195,202 121,221 248,225 248,251 128,230 126,222"/>
		<polygon fill="#170900" fill-opacity="0.52245176" points="378,227 378,207 403,218 379,214 368,208 363,215 362,220 352,245"/>
		<polygon fill="#9d99c8" fill-opacity="0.16114193" points="130,39 201,60 162,63 158,83 158,87 139,68 112,70 168,134"/>
		<polygon fill="#ffffff" fill-opacity="0.0647136" points="313,143 335,177 250,180 208,199 235,245 240,209 279,126"/>
		<polygon fill="#510700" fill-opacity="0.097892046" points="161,270 381,230 200,127 130,164 119,154 136,110 79,104 79,147"/>
		<polygon fill="#faffda" fill-opacity="0.12685406" points="15,221 96,299 171,229 184,299 182,315"/>
		<polygon fill="#ffffff" fill-opacity="0.36848116" points="354,162 364,176 362,184 353,203 350,224 356,224 598,-144 332,-85"/>
		<polygon fill="#000300" fill-opacity="0.5917844" points="121,135 96,140 85,142 94,141 85,140 87,110 121,86"/>
		<polygon fill="#000000" fill-opacity="0.23749721" points="71,146 101,76 177,113 149,116 144,72 157,100 130,131 121,136"/>
		<polygon fill="#0f1100" fill-opacity="0.3117844" points="192,185 278,223 278,235 243,276 224,286 204,308 192,323"/>
		<polygon fill="#5a3617" fill-opacity="0.58997613" points="184,188 185,233 314,182 348,182 273,124 258,94 242,73 166,163"/>
		<polygon fill="#dec29b" fill-opacity="0.8515653" points="334,88 357,88 361,30 374,42 372,92 376,104 423,74 344,113"/>
		<polygon fill="#c9e2ff" fill-opacity="0.70030797" points="191,54 166,64 144,34 168,34 186,20 190,39 191,63 190,9"/>
		<polygon fill="#e6e8ec" fill-opacity="0.40786898" points="22,3 -3,4 1,36 1,42 67,16 105,39 58,58 31,51"/>
		<polygon fill="#d05110" fill-opacity="0.06990051" points="230,304 258,216 221,196 192,188 192,157 25,157"/>
		<polygon fill="#000000" fill-opacity="0.0043471456" points="28,105 28,187 65,187 22,187 -14,55"/>
		<polygon fill="#759656" fill-opacity="0.01852101" points="125,128 125,224 128,236 176,240 309,313 143,324 280,257 298,322"/>
		<polygon fill="#d88524" fill-opacity="0.15533537" points="117,138 138,332 207,328 194,326 210,306 250,277 304,258 410,279"/>
		<polygon fill="#444a5c" fill-opacity="0.7085782" points="313,44 270,18 272,19 248,20"/>
		<polygon fill="#4e2c00" fill-opacity="0.19875598" points="39,102 56,88 85,94 97,97 66,97 264,199 411,275 183,78"/>
		<polygon fill="#ffda9b" fill-opacity="0.57648677" points="276,91 293,91 299,79 302,66 295,63 289,47 262,57"/>
		<polygon fill="#1e0d00" fill-opacity="0.49710917" points="389,262 380,264 374,266 370,264 301,143 301,263 326,261"/>
		<polygon fill="#ebfcff" fill-opacity="0.37674516" points="81,6 97,-1 109,-10 171,-10 198,19 120,102 62,102 -24,28"/>
		<polygon fill="#9c540b" fill-opacity="0.070512235" points="450,46 517,77 278,75 269,150 264,210 410,171 436,64 408,64"/>
		<polygon fill="#000000" fill-opacity="0.062126398" points="411,59 449,59 422,46 422,83 442,89 483,110 490,82"/>
		<polygon fill="#d3010c" fill-opacity="0.041155994" points="1,93 304,88 301,84 462,46 513,80 478,175 469,323 1,323"/>
		<polygon fill="#bea182" fill-opacity="0.5317186" points="390,324 381,259 436,260 436,304 350,310 292,228 266,228 266,238"/>
		<polygon fill="#000000" fill-opacity="0.12615573" points="341,250 371,249 383,299 328,251 328,233 386,245 264,14 238,22"/>
		<polygon fill="#000000" fill-opacity="0.04653144" points="464,193 470,324 388,324 420,324 399,313 470,253"/>
		<polygon fill="#101c00" fill-opacity="0.048211575" points="390,239 434,230 434,265 459,285 434,309 473,345 432,286 390,289"/>
		<polygon fill="#000000" fill-opacity="0.018554866" points="306,313 278,321 180,303 216,264 216,89 8,89 -19,104 8,80"/>
		<polygon fill="#faac56" fill-opacity="0.062212765" points="108,72 117,255 185,318 201,236 130,137 100,138 79,155 407,112"/>
		<polygon fill="#ffd48d" fill-opacity="0.38519156" points="415,80 359,102 315,108 308,141 296,114 315,93 350,58 350,47"/>
		<polygon fill="#000000" fill-opacity="0.06068635" points="412,92 339,102 312,102 325,164 347,193 325,174 318,174 336,250"/>
		<polygon fill="#6f99b0" fill-opacity="0.31693667" points="185,67 187,34 161,69 147,78 147,94 141,64"/>
		<polygon fill="#080100" fill-opacity="0.024145305" points="401,113 401,179 427,183 406,203 468,221 459,260 392,260 15,84"/>
		<polygon fill="#73e148" fill-opacity="0.019940436" points="293,167 324,67 319,115 361,120 373,121 351,97 398,120"/>
		<polygon fill="#f7ffff" fill-opacity="0.26214814" points="314,214 319,214 324,193 332,187 368,187 376,203 372,222 372,214"/>
		<polygon fill="#f5e6b1" fill-opacity="0.14688665" points="395,306 268,316 264,264 251,199"/>
		<polygon fill="#000000" fill-opacity="0.14319438" points="170,58 167,85 160,73 159,71 146,47"/>
		<polygon fill="#000000" fill-opacity="0.038362622" points="155,84 372,250 358,261 396,222 424,252 440,239 432,228 405,260"/>
		<polygon fill="#504314" fill-opacity="0.03915" points="220,255 192,134 182,226 328,212 323,122"/>
		<polygon fill="#ff1500" fill-opacity="0.06828815" points="213,59 363,59 364,72 351,111 375,127 364,131 302,110 186,122"/>
		<polygon fill="#bb9d7a" fill-opacity="0.85007524" points="470,42 363,184 374,212 366,212 439,237 470,212 470,146"/>
		<polygon fill="#000a00" fill-opacity="0.25605148" points="-42,113 104,97 14,89"/>
		<polygon fill="#ffde88" fill-opacity="0.25229156" points="248,90 341,82 353,82 370,118 358,140 353,142 334,110 317,140"/>
		<polygon fill="#ffffff" fill-opacity="0.10444862" points="180,74 315,133 328,133 314,134 294,135 294,154 329,132 170,74"/>
		<polygon fill="#64320b" fill-opacity="0.9593671" points="242,172 247,213 242,226 253,266 241,251 263,254 288,221"/>
		<polygon fill="#703f1d" fill-opacity="0.41409415" points="223,64 283,120 296,68 267,64"/>
		<polygon fill="#471900" fill-opacity="0.051044524" points="446,267 423,267 460,286 460,166 425,252 357,182 463,137 386,135"/>
		<polygon fill="#e2bf98" fill-opacity="0.13885677" points="443,271 465,261 465,283 466,290 443,288 443,267 266,236"/>
		<polygon fill="#fdb263" fill-opacity="0.24476027" points="340,198 330,227 316,221 298,198 358,198 370,182 367,135 342,91"/>
		<polygon fill="#000000" fill-opacity="0.046295464" points="13,93 84,93 112,90 87,107 50,129 73,132 69,144 162,116"/>
		<polygon fill="#060000" fill-opacity="0.13041395" points="142,87 288,87 295,133 305,215 390,267 310,194 345,264 307,246"/>
		<polygon fill="#ffffff" fill-opacity="0.008375585" points="265,191 361,135 258,135"/>
		<polygon fill="#000c3d" fill-opacity="0.16584623" points="125,82 145,93 133,72 135,99 132,110 109,99"/>
		<polygon fill="#27220e" fill-opacity="0.6331648" points="114,103 122,103 141,104 141,93 101,93"/>
		<polygon fill="#daffff" fill-opacity="0.0748896" points="44,53 44,86 174,97 153,113 135,85 211,85 234,112 211,100"/>
		<polygon fill="#ae2d00" fill-opacity="0.111530185" points="328,30 328,79 373,100 350,82"/>
		<polygon fill="#ffff82" fill-opacity="0.030464709" points="344,227 361,227 367,263 367,268"/>
		<polygon fill="#ca7e4c" fill-opacity="0.19840413" points="391,215 420,242 370,208 376,201"/>
		<polygon fill="#000000" fill-opacity="0.113248765" points="97,58 114,62 218,58 246,36 272,46 302,89 329,63 302,104"/>
		<polygon fill="#000000" fill-opacity="0.0979681" points="469,179 417,134 450,136 470,136"/>
		<polygon fill="#000000" fill-opacity="0.08985716" points="231,241 254,164 254,152 267,121 267,180 283,214 283,195 284,256"/>
		<polygon fill="#001e1e" fill-opacity="0.021299064" points="43,0 206,0 206,150 125,260 268,125 384,30 412,16 277,0"/>
		<polygon fill="#def6ff" fill-opacity="0.24450558" points="382,55 405,55 503,46 518,24 524,17 441,-18 439,-32 -16,-3"/>
		<polygon fill="#d7ad72" fill-opacity="0.54910266" points="140,301 132,350 124,373 -21,388 16,188"/>
		<polygon fill="#905304" fill-opacity="0.30523753" points="179,326 187,293 196,282 217,282 216,280 196,272 191,259 221,316"/>
		<polygon fill="#000000" fill-opacity="0.15912992" points="293,99 287,99 287,92 270,78 315,25 267,35 204,39 293,69"/>
		<polygon fill="#ffd9ac" fill-opacity="0.08433437" points="148,244 141,261 138,282 153,280 159,236 166,232 181,207 133,140"/>
		<polygon fill="#dedaff" fill-opacity="0.046844423" points="64,126 -1,108 68,92 65,89 12,103 -13,37 46,6 17,6"/>
		<polygon fill="#606c33" fill-opacity="0.07698125" points="15,192 31,169 15,145 -26,197 22,210 68,187 67,141 40,156"/>
		<polygon fill="#ffffff" fill-opacity="0.0049428344" points="87,314 103,314 79,314 59,316 -5,314 10,218 10,247 14,218"/>
		<polygon fill="#000000" fill-opacity="0.080904126" points="380,48 442,59 485,33 484,172 380,167 397,216 380,98 220,19"/>
		<polygon fill="#e82746" fill-opacity="0.021128416" points="57,0 64,7 33,19 20,12 0,0 0,50 91,76 131,0"/>
		<polygon fill="#d9ecff" fill-opacity="0.5839389" points="250,23 235,34 226,37 202,-19 308,10 284,-18 250,23 250,-6"/>
		<polygon fill="#440800" fill-opacity="0.08236086" points="167,316 192,355 192,293 228,292 239,197 166,200 215,283 228,299"/>
		<polygon fill="#ffdba5" fill-opacity="0.10881251" points="309,304 393,294 437,279 434,248 423,239 417,214 413,194"/>
		<polygon fill="#000000" fill-opacity="0.031101346" points="365,197 456,155 446,131 365,107"/>
		<polygon fill="#695854" fill-opacity="0.2708851" points="341,188 330,236 305,185 322,185 301,177 232,62"/>
		<polygon fill="#f9c185" fill-opacity="0.18055272" points="453,144 480,145 470,167 444,145 348,145 354,148 354,223 424,204"/>
		<polygon fill="#ad723a" fill-opacity="0.81568307" points="292,113 345,113 347,148"/>
		<polygon fill="#370000" fill-opacity="0.10897964" points="172,250 175,190 189,190"/>
		<polygon fill="#7e4b00" fill-opacity="0.38725728" points="365,28 365,42 275,95 338,56 326,56 326,81 377,70"/>
		<polygon fill="#ffffff" fill-opacity="0.10839617" points="260,279 333,211 359,218 338,211 329,224 303,233"/>
		<polygon fill="#e7908d" fill-opacity="0.066817045" points="94,127 63,141 63,173 74,96"/>
		<polygon fill="#72492c" fill-opacity="0.53495353" points="176,83 187,84 151,107 227,131 209,85 203,74 182,62 176,57"/>
		<polygon fill="#000000" fill-opacity="0.018321455" points="141,169 275,108 275,271 90,254 282,136 370,234 344,262"/>
		<polygon fill="#ffffff" fill-opacity="0.03383094" points="449,332 428,332 425,309 357,265 357,243 458,199 461,142 339,160"/>
		<polygon fill="#a51c00" fill-opacity="0.0860495" points="-24,42 0,242 12,269 14,269 23,242 37,258 8,101"/>
		<polygon fill="#ba2bb8" fill-opacity="0.0090433955" points="51,250 58,242 94,158 141,94 151,161 125,173 56,193"/>
		<polygon fill="#caae8f" fill-opacity="0.66622055" points="423,272 397,261 357,258 328,283 310,342 370,352 411,319 361,319"/>
		<polygon fill="#000000" fill-opacity="0.031088173" points="392,135 422,135 391,135 379,132 243,136 178,139 138,66 300,1"/>
		<polygon fill="#003f69" fill-opacity="0.08294445" points="279,11 349,54 349,69"/>
		<polygon fill="#dbd1db" fill-opacity="0.034356713" points="135,130 127,147 132,195 158,124 175,151 165,150 127,120 47,13"/>
		<polygon fill="#05d4fd" fill-opacity="0.06126052" points="153,66 225,66 201,36 178,53 178,85 181,53 123,45"/>
		<polygon fill="#5d4905" fill-opacity="0.117522895" points="274,110 189,110 188,62 265,38"/>
		<polygon fill="#dcc19f" fill-opacity="0.5575286" points="212,329 317,280 289,261 331,271 343,281 311,250 296,221 249,261"/>
		<polygon fill="#ffffff" fill-opacity="0.04146564" points="248,102 248,70 217,59 231,115 188,32"/>
		<polygon fill="#49afe0" fill-opacity="0.012871683" points="164,117 198,304 236,324 250,324 190,324 231,299"/>
		<polygon fill="#ffffff" fill-opacity="0.031357825" points="367,271 345,313 267,313 292,288 268,292 256,288 247,308 237,280"/>
		<polygon fill="#ffffff" fill-opacity="0.06698239" points="93,92 67,130 67,140 13,174 46,100 -28,147 0,120 7,115"/>
		<polygon fill="#ddffff" fill-opacity="0.017745316" points="138,17 40,1 5,57 35,127 40,147 63,147 58,135 110,104"/>
		<polygon fill="#000000" fill-opacity="0.072627604" points="318,265 372,261 369,236 376,230 225,168 225,89 183,32"/>
		<polygon fill="#ffffff" fill-opacity="0.03013122" points="232,110 219,128 167,129 175,111 214,118 192,118 201,122 176,88"/>
		<polygon fill="#080000" fill-opacity="0.089942396" points="79,323 80,345 106,336 106,324 106,343 114,316 133,304 85,304"/>
		<polygon fill="#ffe8cb" fill-opacity="0.13625515" points="210,286 304,213 300,219 312,263 332,274 313,269"/>
		<polygon fill="#280300" fill-opacity="0.26059645" points="277,126 232,82 190,106 278,93"/>
		<polygon fill="#4d2c2f" fill-opacity="0.08690667" points="206,234 206,123 243,97 253,198 264,209 256,268 192,234 132,238"/>
		<polygon fill="#000000" fill-opacity="0.05538374" points="-14,121 -11,126 4,117 -14,91 10,91 37,101 47,112 52,130"/>
		<polygon fill="#ffffff" fill-opacity="0.021703362" points="178,165 123,165 129,99 141,108 141,93 187,106 171,40 91,16"/>
		<polygon fill="#fffaec" fill-opacity="0.19360161" points="421,200 402,210 351,219 340,213 331,211 417,136"/>
		<polygon fill="#000000" fill-opacity="0.066627026" points="141,68 225,68 154,63 181,49 211,33 141,100"/>
		<polygon fill="#2c1300" fill-opacity="0.057570934" points="387,24 397,47 422,38 428,31 424,21 383,21"/>
		<polygon fill="#ef954d" fill-opacity="0.028531313" points="17,259 -1,197 199,81 209,150 234,314 234,349 283,349 255,166"/>
		<polygon fill="#cab896" fill-opacity="0.60942274" points="409,55 394,60 368,59 351,119 368,105 393,113 380,111 406,111"/>
		<polygon fill="#6d3706" fill-opacity="0.23118299" points="221,221 240,273 240,277 270,244 274,241 290,225"/>
		<polygon fill="#654627" fill-opacity="0.40263844" points="288,48 231,59 214,46 211,71 237,94 237,123 259,115"/>
		<polygon fill="#ffffea" fill-opacity="0.10693008" points="299,168 323,231 332,241 323,235 386,253 375,280 365,256 346,256"/>
		<polygon fill="#ffffff" fill-opacity="0.03755641" points="7,29 220,219 256,219 251,180 192,180 185,160 58,18 4,-8"/>
		<polygon fill="#ffffff" fill-opacity="0.24423474" points="376,212 370,227 342,207 335,184 399,215 399,227"/>
		<polygon fill="#ffffff" fill-opacity="0.02070868" points="133,324 133,281 151,290 174,251 185,297"/>
		<polygon fill="#ff6330" fill-opacity="0.018283784" points="182,226 43,226 147,161 207,139 160,199"/>
		<polygon fill="#421512" fill-opacity="0.08323306" points="369,206 398,227 404,208 422,200 419,160"/>
		<polygon fill="#000800" fill-opacity="0.062416017" points="301,46 333,41 262,83 262,86 255,46"/>
		<polygon fill="#947037" fill-opacity="0.13695014" points="113,155 102,176 202,176 202,167 248,158 248,181 223,181 211,167"/>
		<polygon fill="#f2d38d" fill-opacity="0.13318634" points="306,172 305,174 292,154 316,154"/>
		<polygon fill="#ffebab" fill-opacity="0.0306831" points="109,98 137,143 137,84 203,92 98,149 179,175 179,133 179,113"/>
		<polygon fill="#d4b490" fill-opacity="0.43477756" points="365,184 383,211 421,253 338,289 386,214 412,237 412,222 373,103"/>
		<polygon fill="#762f19" fill-opacity="0.14023775" points="-9,293 16,242 78,214 54,171 23,171 -10,172 0,185 0,228"/>
		<polygon fill="#ffffff" fill-opacity="0.07236028" points="249,264 210,295 182,324 171,324 224,324"/>
		<polygon fill="#8c3c00" fill-opacity="0.16301388" points="94,211 157,161 173,167 187,167 189,167 179,144 136,164 94,161"/>
		<polygon fill="#000000" fill-opacity="0.024082959" points="348,55 348,82 338,78 322,70 337,87 318,87 336,179 121,55"/>
		<polygon fill="#ff996b" fill-opacity="0.16860056" points="303,95 298,110 298,126 364,121 361,99 329,68 329,91 294,74"/>
		<polygon fill="#ffffe4" fill-opacity="0.1346429" points="401,142 361,142 361,167 373,178 401,167"/>
		<polygon fill="#411e00" fill-opacity="0.049181044" points="407,116 407,123 401,108 385,91 393,92 422,91"/>
		<polygon fill="#d29a61" fill-opacity="0.4440707" points="46,182 90,227 87,230 77,228 72,206 159,234 111,196 85,181"/>
		<polygon fill="#ffffef" fill-opacity="0.053626895" points="87,198 101,232 108,232 102,216 77,213 29,203 94,288 140,227"/>
		<polygon fill="#ffffff" fill-opacity="0.02230531" points="330,198 332,215 324,250 324,223 294,147"/>
		<polygon fill="#26252a" fill-opacity="0.06278539" points="133,171 193,177 244,167 201,128"/>
		<polygon fill="#000000" fill-opacity="0.08523989" points="263,140 312,86 305,38 312,39 166,98 157,61 159,61 314,9"/>
		<polygon fill="#fffff2" fill-opacity="0.1124984" points="343,75 404,80 394,80 377,64 389,60 392,8"/>
		<polygon fill="#ffffdf" fill-opacity="0.07059479" points="450,145 499,155 470,121 501,218 449,196 367,204 347,210 311,204"/>
		<polygon fill="#91d6fb" fill-opacity="0.09535599" points="87,101 120,87 72,87 79,109 78,111 93,100 88,103"/>
		<polygon fill="#ffffff" fill-opacity="0.011391938" points="357,269 382,269 397,249 394,237 405,228 362,233"/>
		<polygon fill="#ffffff" fill-opacity="0.13043314" points="316,192 316,208 322,217 326,220 339,213 342,211 298,192 321,192"/>
		<polygon fill="#000000" fill-opacity="0.058129787" points="118,167 118,177 110,162 161,162 142,180 126,203"/>
		<polygon fill="#ffffff" fill-opacity="0.012235284" points="57,130 108,152 83,160 60,229 72,298 127,257 132,229"/>
		<polygon fill="#ffffff" fill-opacity="0.009196579" points="172,60 270,153 180,53 193,144"/>
		<polygon fill="#ffffe5" fill-opacity="0.066455066" points="66,255 88,293 105,304 105,259 69,247 69,210 88,201 151,219"/>
		<polygon fill="#000000" fill-opacity="0.009460449" points="241,245 306,249 246,277 288,277 267,294 260,286 260,307 312,273"/>
		<polygon fill="#000000" fill-opacity="0.0054525137" points="407,107 390,101 362,131 381,159"/>
		<polygon fill="#ffffff" fill-opacity="0.00309515" points="118,163 210,234 206,285 194,227 214,214 254,158 254,228 261,237"/>
		<polygon fill="#260000" fill-opacity="0.24559623" points="181,93 180,103 189,116"/>
		<polygon fill="#1c0000" fill-opacity="0.21757454" points="359,36 376,36 356,92 351,92"/>
		<polygon fill="#ffffbd" fill-opacity="0.17088944" points="287,225 306,216 292,241"/>
		<polygon fill="#c28225" fill-opacity="0.13851821" points="84,156 208,247 208,261 181,278 163,256 140,255"/>
		<polygon fill="#000000" fill-opacity="0.0031815767" points="334,44 352,58 334,101 217,80 359,129 323,44"/>
		<polygon fill="#9c6c30" fill-opacity="0.18898815" points="213,315 213,246 237,272 216,251 216,266 285,227"/>
		<polygon fill="#ffefa7" fill-opacity="0.047575533" points="267,95 224,132 208,132 191,132 148,160 148,139 191,103"/>
		<polygon fill="#fff1d3" fill-opacity="0.062444568" points="162,168 184,221 152,221 152,258 149,224 145,187"/>
		<polygon fill="#f8cdba" fill-opacity="0.08065504" points="351,46 453,197 397,171 399,196 418,146"/>
		<polygon fill="#c0dca0" fill-opacity="0.08787936" points="214,231 217,206 217,196 219,199 234,202 241,268"/>
		<polygon fill="#000b00" fill-opacity="0.02463466" points="381,70 380,36 383,37 395,29 395,15 409,20 409,24 408,52"/>
		<polygon fill="#000000" fill-opacity="0.009862959" points="239,228 258,269 277,269 287,239 317,284 258,265 239,265"/>
		<polygon fill="#a45721" fill-opacity="0.050682724" points="322,185 322,147 375,132 434,104 434,45 200,190 152,97"/>
		<polygon fill="#ffda86" fill-opacity="0.146447" points="334,159 333,147 330,107 330,127 363,207"/>
		<polygon fill="#ffd97d" fill-opacity="0.0650506" points="120,278 167,273 180,241 164,241 207,228 154,201"/>
		<polygon fill="#000000" fill-opacity="0.00947839" points="41,246 27,190 104,190 92,218 92,255 107,276 89,253 47,246"/>
		<polygon fill="#000000" fill-opacity="0.045844376" points="367,252 380,258 380,246 403,246 361,259 340,259"/>
		<polygon fill="#ffffff" fill-opacity="0.06800187" points="221,248 222,259 240,237 237,237 237,280"/>
		<polygon fill="#000000" fill-opacity="0.013790548" points="433,22 385,72 372,82 391,103 377,15 349,33 295,5 346,9"/>
		<polygon fill="#ffbe66" fill-opacity="0.07413441" points="115,182 126,182 126,276 81,292 32,292 32,203"/>
		<polygon fill="#000000" fill-opacity="0.14280027" points="305,58 348,77 298,88"/>
		<polygon fill="#8f5b28" fill-opacity="0.11054301" points="88,193 88,163 73,193"/>
		<polygon fill="#ceffff" fill-opacity="0.056531847" points="294,177 346,205 319,236 322,206 294,193"/>
		<polygon fill="#62412f" fill-opacity="0.76795864" points="274,47 284,47 268,84"/>
		<polygon fill="#ffffff" fill-opacity="0.04750657" points="152,338 93,338 124,303 156,303"/>
		<polygon fill="#ffffff" fill-opacity="0.008048177" points="318,17 327,156 346,175 316,33"/>
		<polygon fill="#ffffff" fill-opacity="0.020448565" points="109,108 410,110 380,133 442,159 418,159 429,135 452,137 439,110"/>
		<polygon fill="#7e3500" fill-opacity="0.20096749" points="254,80 299,143 345,187 300,202 300,195 301,185 281,143 279,148"/>
		<polygon fill="#ffffff" fill-opacity="0.15638012" points="272,62 272,79 265,72 270,57 279,42 283,42"/>
		<polygon fill="#ffffff" fill-opacity="0.009616017" points="303,84 277,177 269,170 269,135 398,81"/>
		<polygon fill="#f39624" fill-opacity="0.027787566" points="261,19 358,197 379,217 379,212 366,208 487,334"/>
		<polygon fill="#ffffff" fill-opacity="0.0047195554" points="322,110 276,100 313,100 316,182"/>
		<polygon fill="#000000" fill-opacity="0.010494709" points="158,157 149,130 149,167 119,155 117,140"/>
		<polygon fill="#90aa73" fill-opacity="0.04716617" points="212,84 235,96 218,66 233,81 245,59 246,84"/>
		<polygon fill="#d3e71b" fill-opacity="0.032743454" points="357,292 357,267 402,261"/>
		<polygon fill="#000000" fill-opacity="0.028299153" points="342,108 308,87 326,116 308,151"/>
		<polygon fill="#ffffff" fill-opacity="0.048326552" points="314,75 355,59 328,76 345,50 321,74"/>
		<polygon fill="#53e0fb" fill-opacity="0.024039328" points="105,103 107,108 152,93 73,46 137,60 147,68 107,96"/>
	</g>
</svg>
