<svg xmlns="http://www.w3.org/2000/svg" width="500px" height="333px" version="1.2">
	<!-- generated by Polycasso (http://polycasso.sourceforge.net) -->
	<rect x="0" y="0" width="500px" height="333px" fill="black"/>
	<g comp-op="src-over">
		<polygon fill="#8bffff" fill-opacity="0.9728425" points="0,0 435,0 500,0 500,333 0,333"/>
		<polygon fill="#ffffff" fill-opacity="0.99672496" points="500,333 500,0 0,0 0,333"/>
		<polygon fill="#45424b" fill-opacity="0.978755" points="393,61 299,140 332,120 335,125 318,163 347,135"/>
		<polygon fill="#000000" fill-opacity="0.3602208" points="244,280 238,265 238,247 247,240 230,248 233,280"/>
		<polygon fill="#2d000b" fill-opacity="0.31473732" points="458,168 467,179 458,201 476,201 460,202 455,183"/>
		<polygon fill="#c743bb" fill-opacity="0.030665696" points="416,311 490,227 464,189 447,170 188,322 43,181"/>
		<polygon fill="#887388" fill-opacity="0.9223827" points="443,168 446,147 451,154 466,173 461,166 471,193"/>
		<polygon fill="#000000" fill-opacity="0.59855366" points="472,208 469,239 458,261 445,277 421,296 450,250"/>
		<polygon fill="#827c84" fill-opacity="0.6248441" points="190,203 246,203 257,233 255,237 237,266 190,256"/>
		<polygon fill="#000000" fill-opacity="0.14882183" points="305,309 312,310 312,315 251,317 250,312 234,312"/>
		<polygon fill="#250023" fill-opacity="0.8480394" points="318,63 330,71 389,74 389,62 334,58 324,99"/>
		<polygon fill="#ffffff" fill-opacity="0.22948855" points="440,344 449,311 452,55 176,147 124,138 28,179"/>
		<polygon fill="#665863" fill-opacity="0.6882705" points="459,220 455,217 418,215"/>
		<polygon fill="#000001" fill-opacity="0.8548994" points="381,57 395,57 334,130 366,104 375,96 388,57"/>
		<polygon fill="#ffffff" fill-opacity="0.34419906" points="97,114 268,85 160,303 242,318 260,257 85,272"/>
		<polygon fill="#666653" fill-opacity="0.21967214" points="148,169 173,176 174,195 197,174 200,184 195,189"/>
		<polygon fill="#7e737e" fill-opacity="0.8463348" points="295,177 305,158 309,181 389,214 374,218 373,209"/>
		<polygon fill="#816f64" fill-opacity="0.9692587" points="244,208 217,223 220,207 231,202"/>
		<polygon fill="#713e4a" fill-opacity="0.18506294" points="364,226 384,220 391,218 402,222 329,138 358,122"/>
		<polygon fill="#b9b8be" fill-opacity="0.77304643" points="392,132 360,135 335,112 350,112 343,106 309,89"/>
		<polygon fill="#40393f" fill-opacity="0.9537648" points="202,172 172,135 178,160 197,184 200,234 212,234"/>
		<polygon fill="#5b4a4e" fill-opacity="0.9608797" points="31,199 52,252 70,287 37,257 21,204"/>
		<polygon fill="#383230" fill-opacity="0.35997337" points="44,164 196,247 253,208 297,143 243,209 192,221"/>
		<polygon fill="#140000" fill-opacity="0.44806647" points="114,303 79,297 97,300 80,296 72,286 54,262"/>
		<polygon fill="#190015" fill-opacity="0.7849277" points="203,136 228,223 245,219 248,219 203,206"/>
		<polygon fill="#0f0024" fill-opacity="0.59564584" points="431,292 461,256 395,292 383,290 379,305 371,307"/>
		<polygon fill="#fef3f5" fill-opacity="0.6233018" points="116,263 107,280 107,260 74,270 40,246 -14,16"/>
		<polygon fill="#155393" fill-opacity="0.024138689" points="28,223 117,213 134,249 139,172 1,172 34,25"/>
		<polygon fill="#160011" fill-opacity="0.37984836" points="293,164 357,137 388,130 357,132"/>
		<polygon fill="#001d16" fill-opacity="0.42008668" points="115,243 129,215 119,215 155,244 122,220 124,248"/>
		<polygon fill="#040002" fill-opacity="0.21572775" points="255,190 204,235 238,222 247,219 251,238"/>
		<polygon fill="#2c0008" fill-opacity="0.6874409" points="352,103 352,155 363,180 366,196 328,120 294,101"/>
		<polygon fill="#010000" fill-opacity="0.73612756" points="101,121 110,120 69,133 88,134 79,142 142,123"/>
		<polygon fill="#060100" fill-opacity="0.45854682" points="108,256 122,246 129,263 124,220 133,217 116,234"/>
		<polygon fill="#1b1d13" fill-opacity="0.1618036" points="26,126 105,225 70,252 79,239 114,245 155,260"/>
		<polygon fill="#4f4b53" fill-opacity="0.9998949" points="231,228 270,186 315,134 322,130 317,123 316,113"/>
		<polygon fill="#3c2932" fill-opacity="0.9548756" points="173,229 158,213 164,216 189,220 208,231 216,225"/>
		<polygon fill="#ffffff" fill-opacity="0.93339926" points="144,23 219,211 238,211 228,205 224,205 224,236"/>
		<polygon fill="#dbc6d7" fill-opacity="0.29144055" points="41,121 69,116 75,164 130,212 186,158 172,137"/>
		<polygon fill="#ffffff" fill-opacity="0.815715" points="180,173 94,191 144,208 194,234 179,274 168,232"/>
		<polygon fill="#6a6460" fill-opacity="0.63237536" points="252,249 253,242 254,227 250,227 246,249"/>
		<polygon fill="#000000" fill-opacity="0.5069843" points="117,211 166,210 196,203 164,205 180,227 172,226"/>
		<polygon fill="#561c26" fill-opacity="0.8559967" points="109,221 177,221 112,201 112,190 112,192 111,145"/>
		<polygon fill="#b9bc3d" fill-opacity="0.023671925" points="352,191 421,248 435,257 423,256 421,268 443,111"/>
		<polygon fill="#1d1120" fill-opacity="0.28272182" points="315,276 327,273 317,269 312,250 353,228 304,261"/>
		<polygon fill="#02472d" fill-opacity="0.94397324" points="238,114 225,121 216,127 300,105"/>
		<polygon fill="#4e3b33" fill-opacity="0.68515176" points="26,196 27,225 34,214 38,152 97,123 101,122"/>
		<polygon fill="#cac6c0" fill-opacity="0.4797448" points="137,208 174,188 174,215 157,216 157,220 76,189"/>
		<polygon fill="#000000" fill-opacity="0.15461224" points="81,150 61,108 56,158 3,184 36,148 -20,138"/>
		<polygon fill="#fffffa" fill-opacity="0.73029387" points="100,212 48,172 66,153 70,149 86,139 212,108"/>
		<polygon fill="#ffffff" fill-opacity="0.6897888" points="271,147 288,112 309,99 330,120 382,100 325,144"/>
		<polygon fill="#363246" fill-opacity="0.69855803" points="428,146 423,144 443,163 454,152 410,122 369,122"/>
		<polygon fill="#400910" fill-opacity="0.54764515" points="362,186 360,173 359,155 327,118 324,114 322,49"/>
		<polygon fill="#73606b" fill-opacity="0.9865925" points="199,128 187,128 191,122 201,120 189,106 182,112"/>
		<polygon fill="#391132" fill-opacity="0.12299508" points="164,25 176,48 189,123 208,133 194,112 189,81"/>
		<polygon fill="#110600" fill-opacity="0.46617347" points="189,124 123,198 132,198 123,209 120,235 112,214"/>
		<polygon fill="#584d5e" fill-opacity="0.94814914" points="468,181 473,212 469,231 466,225 466,196 451,162"/>
		<polygon fill="#730020" fill-opacity="0.7200314" points="361,121 354,121 314,157 324,139 335,134 332,121"/>
		<polygon fill="#120000" fill-opacity="0.3231954" points="375,215 454,242 416,226 363,166 354,147 332,129"/>
		<polygon fill="#000000" fill-opacity="0.23849201" points="424,124 346,124 406,138 418,144 470,172 360,63"/>
		<polygon fill="#331418" fill-opacity="0.66471446" points="336,93 191,261 328,123"/>
		<polygon fill="#37242f" fill-opacity="0.8840435" points="164,133 120,133 88,134 111,132 103,122 135,122"/>
		<polygon fill="#230009" fill-opacity="0.42043173" points="420,276 420,295 448,284 416,284 416,273 351,162"/>
		<polygon fill="#310813" fill-opacity="0.78600484" points="387,205 389,213 388,225 364,211 372,211 344,141"/>
		<polygon fill="#714a6b" fill-opacity="0.10787159" points="279,111 317,85 317,66 339,77 398,52 393,101"/>
		<polygon fill="#332731" fill-opacity="0.9511058" points="177,45 177,65 153,51 160,55 138,47 121,37"/>
		<polygon fill="#d7d4d7" fill-opacity="0.9795599" points="248,213 240,234 224,220 207,236 205,237 201,250"/>
		<polygon fill="#162527" fill-opacity="0.18465346" points="234,212 216,237 232,270 230,247 228,221 261,220"/>
		<polygon fill="#62112a" fill-opacity="0.66740227" points="230,113 220,116 214,127 314,105 312,110 335,92"/>
		<polygon fill="#040421" fill-opacity="0.25236583" points="161,19 176,49 198,133 221,119 177,129 194,139"/>
		<polygon fill="#0f0018" fill-opacity="0.5711852" points="335,277 313,256 301,250 296,249 326,290 323,288"/>
		<polygon fill="#a36e46" fill-opacity="0.99034816" points="462,236 460,242 438,276 436,269"/>
		<polygon fill="#58504c" fill-opacity="0.49652672" points="83,200 93,206 109,209 98,209 54,187 54,185"/>
		<polygon fill="#ffffff" fill-opacity="0.4190846" points="199,230 224,248 219,225 223,240 206,223 245,202"/>
		<polygon fill="#0e1023" fill-opacity="0.60528123" points="360,75 390,76 402,58 390,55 379,39"/>
		<polygon fill="#c3bac2" fill-opacity="0.9520582" points="176,77 168,49 190,41 157,39 199,41 176,57"/>
		<polygon fill="#000001" fill-opacity="0.12549716" points="172,152 172,161 185,161 185,146 210,135 195,109"/>
		<polygon fill="#614f60" fill-opacity="0.9471896" points="140,294 137,301 159,293 180,279"/>
		<polygon fill="#946e88" fill-opacity="0.84236103" points="303,253 322,271 316,256 302,233"/>
		<polygon fill="#2b212b" fill-opacity="0.76034975" points="395,52 399,66 398,53 394,72 367,80 367,62"/>
		<polygon fill="#57525e" fill-opacity="0.85304826" points="305,243 316,256 298,252 295,248 287,208 297,192"/>
		<polygon fill="#070000" fill-opacity="0.3553022" points="379,214 379,225 357,206 361,209 323,206 308,206"/>
		<polygon fill="#443444" fill-opacity="0.9422045" points="189,117 207,120 223,126 227,127 217,127 204,127"/>
		<polygon fill="#ffffff" fill-opacity="0.6572675" points="410,286 423,279 389,242 383,241 350,173"/>
		<polygon fill="#0d000f" fill-opacity="0.03328824" points="336,180 302,141 386,118 393,265 384,252 360,259"/>
		<polygon fill="#38323a" fill-opacity="0.9034709" points="337,131 310,152 292,183 289,205 292,221 296,198"/>
		<polygon fill="#241a24" fill-opacity="0.70365924" points="45,281 96,300 134,304 164,290 192,267 131,290"/>
		<polygon fill="#020000" fill-opacity="0.11399937" points="179,268 243,256 261,232"/>
		<polygon fill="#aa0000" fill-opacity="0.5356026" points="333,99 308,109 268,113 263,117 307,96"/>
		<polygon fill="#beb3b4" fill-opacity="0.2722103" points="393,49 380,61 416,45 322,96 360,71 389,18"/>
		<polygon fill="#ffffff" fill-opacity="0.9325201" points="82,270 82,279 48,320 149,320 55,343 4,285"/>
		<polygon fill="#110000" fill-opacity="0.3564309" points="105,188 114,196 110,206 110,203 97,158 85,130"/>
		<polygon fill="#bdbcbc" fill-opacity="0.23512661" points="221,325 245,310 129,310 127,308 106,291 68,286"/>
		<polygon fill="#13001c" fill-opacity="0.47501385" points="460,250 461,250 472,230 473,198 475,205 459,163"/>
		<polygon fill="#786e75" fill-opacity="0.4105227" points="400,61 390,77 374,75 364,86 358,78 355,104"/>
		<polygon fill="#716567" fill-opacity="0.7870485" points="298,221 299,205 298,198 293,215 293,213 311,150"/>
		<polygon fill="#382c37" fill-opacity="0.41978043" points="44,190 29,233 31,164 58,156 59,142 48,106"/>
		<polygon fill="#f8f7ff" fill-opacity="0.26077443" points="294,75 274,119 280,119 278,134 274,139 317,45"/>
		<polygon fill="#f6f4e9" fill-opacity="0.25187552" points="288,149 293,174 297,184 320,151 308,195 231,200"/>
		<polygon fill="#81767f" fill-opacity="0.8729899" points="100,126 206,138 191,145 163,174 182,153 140,137"/>
		<polygon fill="#ffffff" fill-opacity="0.944098" points="349,65 364,65 373,66 381,65 413,6 275,73"/>
		<polygon fill="#0f000a" fill-opacity="0.5249582" points="397,110 408,110 396,100 389,63 393,45 387,91"/>
		<polygon fill="#000000" fill-opacity="0.14254886" points="22,227 48,227 39,216 37,208 37,213 33,179"/>
		<polygon fill="#483b42" fill-opacity="0.7384212" points="184,167 194,106 205,142 188,142 186,144 136,123"/>
		<polygon fill="#392332" fill-opacity="0.9936306" points="215,114 112,213 126,205 134,200 137,197 159,179"/>
		<polygon fill="#00382a" fill-opacity="0.20891237" points="297,110 253,120 230,124 215,115 244,111 268,105"/>
		<polygon fill="#000000" fill-opacity="0.26686394" points="45,260 30,223 44,271 106,294"/>
		<polygon fill="#c06e8e" fill-opacity="0.38664198" points="320,121 303,137 296,137"/>
		<polygon fill="#241a1d" fill-opacity="0.77938914" points="199,132 241,116 189,118 175,99"/>
		<polygon fill="#48000e" fill-opacity="0.23892885" points="126,255 119,245 105,207 167,173 134,201 126,215"/>
		<polygon fill="#f3faf5" fill-opacity="0.739827" points="163,285 107,292 80,281 64,281 108,215 75,215"/>
		<polygon fill="#fffaf7" fill-opacity="0.54832494" points="75,314 143,299 134,286 124,291 124,246 148,316"/>
		<polygon fill="#ad9ba9" fill-opacity="0.99899143" points="334,292 326,279 313,263 336,277 388,307"/>
		<polygon fill="#28161c" fill-opacity="0.87682194" points="72,291 54,276 44,263 68,279 52,261 83,284"/>
		<polygon fill="#f1d5e9" fill-opacity="0.2637124" points="106,268 126,242 117,226 135,212 133,242"/>
		<polygon fill="#806869" fill-opacity="0.4724759" points="72,249 62,253 51,265 51,257 32,225 52,265"/>
		<polygon fill="#000000" fill-opacity="0.30943573" points="218,235 221,190 211,167 211,161 215,176 203,161"/>
		<polygon fill="#833e4a" fill-opacity="0.2761011" points="129,220 139,220 65,143"/>
		<polygon fill="#000000" fill-opacity="0.18047512" points="196,189 177,159 173,146 188,146 209,129 182,105"/>
		<polygon fill="#ffffff" fill-opacity="0.92988807" points="372,105 418,98 443,116 443,140 410,126"/>
		<polygon fill="#000006" fill-opacity="0.49603248" points="350,122 350,140 382,123 420,128 405,131 378,122"/>
		<polygon fill="#887277" fill-opacity="0.19442266" points="171,280 186,244 141,272 132,237 147,251 228,245"/>
		<polygon fill="#ebe8ff" fill-opacity="0.14557457" points="107,195 190,168 215,225 137,198 171,161 107,114"/>
		<polygon fill="#000108" fill-opacity="0.122086644" points="397,289 373,271 373,294 373,290 334,289 361,302"/>
		<polygon fill="#0b0015" fill-opacity="0.28793818" points="293,156 234,220 254,233 249,227 234,214 300,144"/>
		<polygon fill="#ffffff" fill-opacity="0.8132601" points="217,275 203,247 201,247 198,256 198,257 87,211"/>
		<polygon fill="#392b25" fill-opacity="0.51480216" points="143,287 165,276 190,250 217,218 195,259 174,286"/>
		<polygon fill="#a5a096" fill-opacity="0.20551181" points="229,147 68,232 45,243 56,232 88,219 132,179"/>
		<polygon fill="#7d5174" fill-opacity="0.12644851" points="-11,109 101,235 89,236 95,219 46,182"/>
		<polygon fill="#725c6a" fill-opacity="0.9592677" points="348,285 414,297 398,289 382,290 405,299 382,304"/>
		<polygon fill="#3c2c37" fill-opacity="0.62870127" points="218,188 229,207 218,220 185,221 190,229 205,236"/>
		<polygon fill="#676168" fill-opacity="0.5460236" points="201,225 194,216 242,215 235,224 250,214 191,176"/>
		<polygon fill="#ffffff" fill-opacity="0.43507046" points="151,5 431,79 341,55 424,22 424,53 355,59"/>
		<polygon fill="#c03f75" fill-opacity="0.0036358833" points="272,163 344,126 367,182 341,139 228,50 102,50"/>
		<polygon fill="#f1deff" fill-opacity="0.18751591" points="183,115 227,117 244,129 38,83"/>
		<polygon fill="#100008" fill-opacity="0.8226863" points="172,60 184,99 205,177 203,140 179,58 159,42"/>
		<polygon fill="#5a3c54" fill-opacity="0.6125653" points="355,61 355,74 285,74 314,74 314,71"/>
		<polygon fill="#000000" fill-opacity="0.38046247" points="298,258 335,292 351,297 360,302 368,302 386,302"/>
		<polygon fill="#312f38" fill-opacity="0.91807586" points="33,175 55,149 39,153 47,167 46,159 31,208"/>
		<polygon fill="#ffffff" fill-opacity="0.20818073" points="85,295 94,252 5,266 9,275 48,269 15,233"/>
		<polygon fill="#000300" fill-opacity="0.15616143" points="140,134 102,133 99,117 109,150 111,123"/>
		<polygon fill="#7c7076" fill-opacity="0.89000213" points="383,212 368,182 370,175 361,130"/>
		<polygon fill="#0f1114" fill-opacity="0.30567753" points="87,286 118,197 111,261 107,276 109,290 112,204"/>
		<polygon fill="#0c0009" fill-opacity="0.4024399" points="398,302 399,300 391,256 400,292 400,286 419,294"/>
		<polygon fill="#686164" fill-opacity="0.52159" points="101,247 99,243 78,266 113,220 95,211 114,203"/>
		<polygon fill="#beb963" fill-opacity="0.19100094" points="228,212 164,273 151,240 149,224 160,287"/>
		<polygon fill="#eeeff0" fill-opacity="0.67504007" points="393,221 418,255 425,151 393,138 361,164 368,180"/>
		<polygon fill="#69920c" fill-opacity="0.023767114" points="466,284 316,270 303,261 290,231 290,110 258,106"/>
		<polygon fill="#f1fff1" fill-opacity="0.3525548" points="367,273 347,280 363,290 336,287 363,294 374,301"/>
		<polygon fill="#00000e" fill-opacity="0.19266748" points="268,169 283,177 265,176 247,210 283,173 316,133"/>
		<polygon fill="#000000" fill-opacity="0.98980457" points="349,198 360,208 342,192"/>
		<polygon fill="#005912" fill-opacity="0.026563942" points="376,220 454,156 473,190 399,209 359,226 359,221"/>
		<polygon fill="#000b00" fill-opacity="0.03663647" points="203,157 232,224 171,195"/>
		<polygon fill="#301f25" fill-opacity="0.92500216" points="24,33 141,42 202,42 208,44 208,48"/>
		<polygon fill="#fffffd" fill-opacity="0.39267176" points="325,203 368,222 375,213 364,192"/>
		<polygon fill="#000014" fill-opacity="0.44927877" points="380,208 395,229 386,204 412,175 407,183 418,167"/>
		<polygon fill="#ffeff8" fill-opacity="0.16126198" points="386,75 399,91 388,59 456,178 300,116 424,180"/>
		<polygon fill="#ffffff" fill-opacity="0.18618345" points="422,96 423,130 389,120 365,92 365,103 286,86"/>
		<polygon fill="#710e1e" fill-opacity="0.73302037" points="333,81 334,114 320,130 311,130 328,77 312,109"/>
		<polygon fill="#ffffe6" fill-opacity="0.10063845" points="209,198 171,222 211,222 227,184 235,227 232,204"/>
		<polygon fill="#000000" fill-opacity="0.1064657" points="352,212 298,204 298,236 313,284 286,212 330,204"/>
		<polygon fill="#361b0b" fill-opacity="0.09098631" points="52,204 116,248 152,218 190,242 144,221 196,217"/>
		<polygon fill="#815836" fill-opacity="0.4095829" points="105,213 111,221 111,205 116,209 134,207 110,196"/>
		<polygon fill="#a49baa" fill-opacity="0.9933632" points="390,298 400,298 391,296 391,293 414,288 417,288"/>
		<polygon fill="#ffffff" fill-opacity="0.12274307" points="180,104 208,114 233,119 235,107 216,122 208,125"/>
		<polygon fill="#fffff3" fill-opacity="0.10039967" points="196,6 219,81 156,97 138,125 181,145 211,109"/>
		<polygon fill="#040000" fill-opacity="0.09586203" points="110,196 112,192 110,157 106,178 83,165 10,69"/>
		<polygon fill="#070005" fill-opacity="0.28977436" points="82,142 82,138 65,130 92,140"/>
		<polygon fill="#070300" fill-opacity="0.42726368" points="316,77 371,73 372,115 372,66 356,63 345,60"/>
		<polygon fill="#001b15" fill-opacity="0.37882942" points="350,62 336,74 324,68 332,87 320,85 317,68"/>
		<polygon fill="#000000" fill-opacity="0.2929116" points="255,253 243,251 201,251 180,280 201,231 196,246"/>
		<polygon fill="#ffffff" fill-opacity="0.72296137" points="85,111 151,111 111,122 94,124 17,106 -4,218"/>
		<polygon fill="#000000" fill-opacity="0.29602367" points="126,222 157,246 182,259"/>
		<polygon fill="#160217" fill-opacity="0.25322473" points="430,251 448,273 426,251"/>
		<polygon fill="#170000" fill-opacity="0.19629735" points="51,101 51,130 40,133 51,153 36,197 33,270"/>
		<polygon fill="#fefffc" fill-opacity="0.07467687" points="36,89 273,17 231,38 189,91 105,148 121,71"/>
		<polygon fill="#a79886" fill-opacity="0.5966206" points="426,286 458,255 458,238"/>
		<polygon fill="#070900" fill-opacity="0.04791689" points="293,215 308,263 260,191 245,197 241,217 251,208"/>
		<polygon fill="#000013" fill-opacity="0.3470294" points="212,259 186,261 163,292 191,269 191,258 165,253"/>
		<polygon fill="#a79c98" fill-opacity="0.7738004" points="153,250 146,253 174,254 183,261"/>
		<polygon fill="#ffffff" fill-opacity="0.96560556" points="12,0 77,111 40,166 28,191 28,225 -107,243"/>
		<polygon fill="#ffffff" fill-opacity="0.9060166" points="482,345 335,355 422,292 470,267"/>
		<polygon fill="#ffffff" fill-opacity="0.6852084" points="154,1 205,-12 205,40 111,42 113,81 18,29"/>
		<polygon fill="#ffffff" fill-opacity="0.9196902" points="109,-10 42,47 119,51 141,40 192,41 159,-12"/>
		<polygon fill="#090000" fill-opacity="0.35413742" points="382,211 353,218 336,223 287,233 345,218"/>
		<polygon fill="#fffffd" fill-opacity="0.89225096" points="190,220 209,221 197,221 197,211 149,211"/>
		<polygon fill="#1eb921" fill-opacity="0.00737983" points="100,115 176,137 201,107 231,237 139,219 218,215"/>
		<polygon fill="#160b0d" fill-opacity="0.5691087" points="360,298 372,288 380,282"/>
		<polygon fill="#040000" fill-opacity="0.067009985" points="432,249 429,261 417,242 384,213 361,222"/>
		<polygon fill="#0f0000" fill-opacity="0.15077084" points="445,197 436,197 405,205 398,205 447,203"/>
		<polygon fill="#5b424b" fill-opacity="0.24237269" points="38,249 56,280 89,257 85,255 74,273"/>
		<polygon fill="#ffffff" fill-opacity="0.10493952" points="362,89 345,120 368,120 345,141 405,198 358,145"/>
		<polygon fill="#e3dde3" fill-opacity="0.8257497" points="394,224 378,229 392,238 387,236 382,224 416,180"/>
		<polygon fill="#6a6711" fill-opacity="0.0232445" points="87,235 93,206 152,235"/>
		<polygon fill="#000000" fill-opacity="0.15378791" points="133,177 133,189 137,177 155,124"/>
		<polygon fill="#000100" fill-opacity="0.0964728" points="169,255 152,209 145,222 158,226 167,251 128,251"/>
		<polygon fill="#c5001d" fill-opacity="0.27850342" points="303,137 323,131 345,117 321,108 322,108 316,111"/>
		<polygon fill="#deffff" fill-opacity="0.29440624" points="345,128 341,103 341,109 365,121"/>
		<polygon fill="#bdafb9" fill-opacity="0.6811961" points="458,215 466,220 464,232 460,243 451,242 458,237"/>
		<polygon fill="#ffffff" fill-opacity="0.4300217" points="301,241 306,257 303,248 311,259 317,267 340,258"/>
	</g>
</svg>
